<svg width="1440" height="804" viewBox="0 0 1440 804" fill="none" xmlns="http://www.w3.org/2000/svg">
<path opacity="0.05" d="M192.157 101.991C197.575 103.335 203.08 104.176 208.585 104.176C212.605 104.176 216.625 103.755 220.644 102.831C232.703 100.059 237.684 88.8013 232.354 76.7035C227.373 65.6138 218.722 59.8169 209.459 59.8169C202.818 59.8169 195.915 62.7574 189.798 68.9743C181.409 77.5436 180.273 79.6439 180.273 86.7009C180.273 93.3379 185.429 100.143 192.157 101.991ZM191.546 70.5705C196.963 65.0257 203.168 62.1693 209.459 62.1693C218.198 62.1693 225.713 67.7981 230.082 77.6276C232.616 83.2564 232.791 88.8013 230.431 93.1699C228.422 96.9505 224.839 99.5549 220.12 100.563C216.363 101.403 212.43 101.823 208.585 101.823C203.517 101.823 198.362 101.151 192.769 99.8069C187.264 98.2947 182.72 92.4978 182.72 86.785C182.72 80.484 183.244 79.0558 191.546 70.5705ZM295.358 6.721C296.406 9.32539 297.193 12.0138 298.329 14.6182C301.212 21.3392 304.97 27.4721 308.378 33.8571C309.601 36.1254 310.3 38.3097 311.611 40.6621C312.31 41.9223 313.097 43.0984 313.883 44.3586C323.058 60.573 332.758 76.4514 342.283 92.4138C344.031 95.3542 346.04 98.0426 347.788 100.983C348.575 102.327 349.361 103.671 350.235 105.016L355.74 113.921C359.847 120.642 363.954 126.187 368.061 132.152C370.683 135.848 372.693 139.965 375.489 143.577C396.636 170.797 422.589 190.288 454.571 198.942C457.717 199.782 460.95 200.79 464.096 201.378C466.106 201.798 467.941 202.638 470.038 202.89C475.281 203.646 480.524 204.066 485.593 204.066C505.079 204.066 523.255 198.102 538.198 182.307C539.596 180.795 540.382 178.863 541.606 177.182C541.693 177.014 541.781 176.846 541.868 176.762C547.723 168.697 551.917 159.54 555.238 150.046C562.84 128.791 566.947 106.528 571.229 84.4326C573.85 70.9066 577.258 57.8006 581.365 44.8627C582.327 41.6702 583.725 38.4777 584.861 35.2853C588.968 23.6915 593.337 12.2658 598.93 1.17618C599.017 0.924138 599.104 0.6721 599.192 0.420063H596.133C594.123 4.87273 592.114 9.32539 590.104 13.7781C587.045 20.163 585.298 26.884 582.938 33.437C581.802 36.5455 580.579 39.5699 579.53 42.7624C574.2 59.3969 569.918 76.3674 566.51 93.674C562.316 115.013 557.772 136.352 549.82 156.851C547.198 163.572 544.052 169.537 540.382 174.746C540.208 174.998 540.033 175.334 539.858 175.586C537.237 179.199 533.916 181.971 530.683 184.744C527.624 187.348 524.304 189.532 520.983 191.465C511.458 196.757 500.361 200.202 486.292 200.706C484.981 200.79 483.758 200.79 482.447 200.79C475.718 200.79 469.427 199.866 463.135 198.69C460.426 198.186 457.892 197.429 455.27 196.757C435.784 191.381 418.22 180.963 401.791 167.437C389.645 157.608 380.295 145.678 371.557 133.244C364.653 123.498 358.187 113.501 352.157 103.335C339.137 82.1643 326.03 61.0771 313.708 39.4859C307.766 29.1524 302.523 18.3987 298.154 7.30909C297.979 6.97304 297.892 6.63699 297.805 6.30094C297.018 4.36865 296.669 2.26834 295.969 0.33605H293.348C293.96 2.18433 294.309 4.11661 295.008 5.88088C295.096 6.13292 295.183 6.46897 295.358 6.721ZM353.643 428.212C354.167 440.646 360.459 447.619 369.809 447.619C373.042 447.619 376.537 446.779 380.382 445.014C387.024 441.906 393.14 438.125 399.083 434.009C417.258 421.575 436.745 411.493 456.057 400.992C469.776 393.599 482.971 385.113 493.981 373.52C502.458 364.53 507.876 354.029 507.002 341.427C507.701 324.54 501.06 311.35 490.311 299.673C478.777 287.239 465.057 278.081 451.076 269.176C430.016 255.566 408.957 241.872 387.548 228.682C376.45 221.877 365.352 214.82 352.594 211.46C349.885 210.787 347.351 210.367 345.167 210.367C335.205 210.367 329.7 217.004 329.263 229.606C328.826 242.628 331.185 255.314 333.981 267.916C339.225 290.683 347.439 312.443 353.031 335.126C358.886 358.734 359.235 382.257 355.478 406.201C354.167 413.426 353.293 420.819 353.643 428.212ZM357.837 406.621C361.944 381.081 361.07 357.557 355.391 334.622C352.682 323.868 349.448 313.199 346.303 302.949C342.72 291.355 339.137 279.426 336.341 267.412C333.632 255.65 331.273 242.88 331.622 229.774C331.972 218.517 336.516 212.804 345.079 212.804C347.089 212.804 349.448 213.14 351.895 213.728C363.43 216.752 373.741 223.053 383.79 229.27L386.15 230.782C407.821 244.056 429.055 257.834 449.678 271.192C463.747 280.182 477.291 289.255 488.476 301.353C500.011 314.039 505.167 326.809 504.555 341.511C505.341 352.517 501.234 362.43 492.146 372.176C480.35 384.693 466.019 393.179 454.833 399.228L446.619 403.68C430.279 412.502 413.326 421.659 397.684 432.413C390.781 437.201 385.014 440.562 379.334 443.166C375.926 444.678 372.78 445.519 369.809 445.519C361.595 445.519 356.527 439.05 356.09 428.38C355.827 421.743 356.352 414.854 357.837 406.621ZM111.589 81.7442C110.453 83.5085 108.968 85.0207 107.919 86.869C107.307 87.8771 107.307 89.1373 106.783 90.1455C103.987 95.5223 101.453 101.319 100.055 108.124C99.8799 108.796 100.229 109.3 100.142 109.972C99.9672 111.065 99.2682 111.905 99.0934 112.997C97.5205 125.683 106.171 133.832 115.259 138.033C125.745 142.905 137.018 144.166 148.203 145.426C173.108 148.114 198.362 147.862 222.829 154.331C223.441 154.499 224.052 154.751 224.752 154.919C230.694 156.599 236.461 158.868 241.879 161.556C243.364 162.312 244.762 163.236 246.248 164.16C250.268 166.513 254.2 169.117 257.87 172.142C259.792 173.822 261.453 175.754 263.2 177.602C268.618 183.399 273.337 189.868 277.007 197.009C277.182 197.261 277.269 197.513 277.444 197.766C282.512 207.847 286.357 218.433 290.027 229.102C291.6 233.387 293.261 237.419 294.746 241.956C297.717 251.197 300.339 260.523 303.048 269.848C304.358 274.385 305.582 279.174 306.805 283.962C310.3 296.648 312.747 309.586 314.582 322.608C315.456 329.413 316.679 336.218 316.679 342.855C316.679 344.619 316.854 346.384 316.767 348.064C316.417 358.65 314.495 369.151 311.873 379.653C308.902 391.75 305.669 403.764 303.397 415.946C302.96 418.13 303.31 420.315 302.96 422.499C302.785 423.591 302.348 424.767 302.261 425.944C301.912 430.06 302.086 433.673 302.086 437.537C301.999 443.502 302.261 449.383 303.135 455.264C304.096 462.321 305.756 468.874 308.116 475.007C308.728 476.687 308.64 478.451 309.427 480.048C309.951 481.308 310.912 482.484 311.524 483.744C311.699 483.996 311.873 484.332 312.048 484.584C318.427 496.682 328.127 507.436 340.011 513.569C340.098 513.653 340.186 513.653 340.273 513.737C346.477 516.929 353.119 519.282 360.284 519.282C360.983 519.282 361.77 519.281 362.556 519.198C366.314 519.029 369.459 517.433 372.78 516.425C374.091 516.005 375.401 515.921 376.625 515.333C381.081 513.485 385.188 510.88 389.033 507.772C389.47 507.436 389.907 507.352 390.344 507.016C390.606 506.764 390.868 506.428 391.131 506.176C392.441 504.999 394.014 504.327 395.238 503.067C405.986 492.314 416.122 480.972 426.521 470.05C436.483 459.465 447.93 450.895 459.814 443.082C469.252 436.949 478.864 431.068 488.738 425.86C501.234 419.307 513.818 412.838 526.051 405.613C528.149 404.352 529.634 402.252 531.644 400.824C534.353 398.976 537.237 397.379 539.771 395.195C541.256 394.019 541.693 392.339 543.004 391.078C545.538 388.642 548.771 386.962 551.043 384.189C553.315 381.417 553.927 378.224 555.5 375.284C556.374 373.604 557.247 372.008 557.947 370.327C560.83 362.934 562.403 355.037 562.316 346.72C562.316 346.048 562.665 345.628 562.665 344.955C562.665 344.703 562.578 344.367 562.578 344.031C562.578 343.191 562.84 342.519 562.753 341.679C562.316 333.446 560.743 325.633 558.908 317.819V317.735C556.461 307.402 553.14 297.32 549.121 287.407C540.382 266.32 525.789 251.702 503.768 245.653C477.116 238.092 450.639 230.446 426.259 216.668C407.996 206.419 391.043 194.321 375.227 180.543C360.284 167.521 347.526 152.651 335.904 136.856C335.292 136.016 334.593 135.092 333.981 134.252C322.534 118.542 312.223 101.991 302.174 85.1887C289.328 63.8495 277.531 41.9223 266.696 19.4909C263.725 13.19 261.103 6.721 258.569 0.252038H255.948C257.346 4.0326 258.307 7.89718 260.055 11.5097C261.278 14.0301 262.676 16.3824 263.9 18.9868C264.162 19.4909 264.249 19.995 264.511 20.4991C265.735 23.1034 267.395 25.5398 268.618 28.1442C280.328 52.0038 292.998 75.1912 306.98 97.6226C316.942 114.089 327.865 130.387 340.098 146.014C341.584 147.862 342.632 150.046 344.118 151.895C345.778 153.995 347.701 155.675 349.448 157.692C351.371 159.96 353.468 162.144 355.565 164.329C384.489 196.001 419.181 219.693 459.552 234.815C473.621 240.108 488.214 244.14 502.632 248.173C524.129 254.222 538.285 268.336 546.761 288.835C554.014 306.478 559.257 324.708 560.131 344.031C560.131 345.208 559.869 346.048 559.869 347.14C559.869 355.541 558.558 363.354 555.5 370.327C554.975 371.587 554.276 372.68 553.665 373.856C550.694 379.569 546.324 384.525 541.344 389.314C538.023 392.591 534.528 395.699 530.683 398.387C519.498 406.285 507.613 412.67 495.642 419.055C479.301 427.708 462.96 436.109 448.105 447.199C445.221 449.383 442.949 452.408 440.153 454.76C434.91 459.213 429.317 463.497 424.773 468.286C421.54 471.73 418.394 475.091 415.249 478.535C414.986 478.871 414.637 479.124 414.375 479.46C413.151 480.804 411.666 481.812 410.53 483.156C404.063 490.717 397.073 497.774 389.645 504.243C388.859 504.915 388.072 505.419 387.286 506.008C383.353 509.2 379.246 511.804 375.139 513.401C374.615 513.569 374.091 513.653 373.566 513.821C369.285 515.333 364.915 516.257 360.634 516.257C353.992 516.257 347.351 514.493 341.147 511.3C334.943 508.024 329.088 503.319 323.932 497.354C317.466 489.793 313.359 481.56 310.213 473.075C308.203 467.698 306.892 462.237 305.844 456.524C305.145 452.155 304.533 447.703 304.358 443.166C304.096 436.109 304.446 428.884 305.582 421.239C306.193 416.618 306.892 412.082 307.854 407.545C308.378 405.276 308.815 403.092 309.339 400.908C310.65 395.531 312.048 390.238 313.534 384.861C314.058 383.013 313.883 381.165 314.407 379.401C315.107 376.796 315.718 374.192 316.33 371.587C317.029 368.647 316.417 365.959 316.942 363.018C318.078 354.533 318.951 346.048 318.689 337.478C318.602 335.63 319.301 333.698 319.039 331.934C318.689 328.741 317.553 325.381 317.116 322.188C316.417 317.063 316.679 311.939 315.543 306.73C313.621 298.245 311.087 289.927 308.99 281.526C308.728 280.518 308.728 279.594 308.378 278.586L306.281 270.94C306.193 270.604 306.106 270.268 306.019 269.932C303.484 260.691 300.688 251.618 297.717 242.544C295.445 235.235 292.649 228.178 289.94 221.037C287.581 214.82 285.746 208.351 283.124 202.218C282.25 200.202 281.027 198.858 280.066 196.925C279.978 196.673 279.891 196.505 279.803 196.253C277.968 192.725 275.609 188.44 272.551 183.987C271.24 182.139 269.667 180.543 268.181 178.863C266.346 176.594 264.773 174.242 262.589 172.226C261.54 171.302 260.142 170.629 259.006 169.789C255.685 167.017 252.015 164.665 248.345 162.396C246.598 161.388 244.85 160.296 243.015 159.372C237.597 156.599 231.742 154.331 225.538 152.567C225.101 152.483 224.752 152.231 224.402 152.147C224.14 152.063 223.878 152.063 223.616 151.979C220.994 151.223 218.635 150.214 215.926 149.626C211.207 148.618 206.313 148.534 201.507 147.946C198.099 147.526 194.691 147.106 191.196 146.77C185.604 146.266 180.098 145.258 174.506 144.838C157.641 143.493 140.601 142.989 124.085 138.201C119.104 136.772 114.386 134.84 110.104 131.396C103.113 125.851 101.54 118.71 102.676 110.476C103.725 104.092 105.909 97.8746 109.055 91.5737C110.628 88.4652 112.288 85.4408 114.123 82.5003C118.58 75.3593 123.386 68.9743 128.28 62.5053C135.533 52.9279 143.048 43.5185 150.126 33.9411C155.019 27.3041 159.388 20.415 163.758 13.526C164.282 12.6859 164.894 11.8458 165.418 11.0056C167.515 7.56113 169.263 3.94859 171.01 0.420063H167.952C158.689 17.7266 147.242 33.773 134.833 49.2313C128.891 56.6245 123.648 64.6897 118.23 72.5868C116.308 75.3592 114.123 77.7956 112.376 80.652C112.026 80.9041 111.764 81.3241 111.589 81.7442ZM20.0983 219.945C32.3321 216.668 43.8667 211.712 55.1393 206.503C58.4599 204.991 61.9552 204.402 65.2758 202.722C75.4997 197.429 86.248 193.649 96.9088 189.868C102.501 187.852 108.094 185.752 113.599 184.239C123.736 181.467 134.047 179.619 144.533 178.107C151.699 177.182 158.864 175.838 165.942 175.67C168.214 175.586 170.573 175.334 172.845 175.334C186.215 175.334 199.41 177.014 212.43 181.047C221.431 183.819 229.296 188.356 236.286 193.817C237.422 194.741 238.471 195.665 239.519 196.589C246.073 202.386 252.015 209.023 256.647 217.088C264.773 230.95 270.89 245.569 275.784 260.607C276.57 263.043 277.182 265.9 277.968 268.42C282.075 282.618 285.396 297.068 287.144 312.023C289.241 329.161 286.969 345.88 283.299 362.598C282.949 364.026 282.774 365.371 282.425 366.799C278.93 381.501 274.56 396.035 272.987 411.157C272.551 414.938 272.813 418.466 272.551 422.163C272.463 423.675 272.463 425.187 272.376 426.7C271.939 436.865 272.376 446.779 273.512 456.524C273.599 457.196 273.512 457.868 273.599 458.54C273.687 459.129 273.949 459.633 274.036 460.305C275.347 470.05 277.706 479.544 280.939 488.701C281.464 490.381 282.075 491.977 282.687 493.574C285.483 500.631 288.979 507.436 292.998 514.073C295.008 517.433 297.018 520.71 299.29 523.818C300.95 526.086 301.912 528.523 303.747 530.707C306.805 534.488 310.65 537.428 313.971 540.873C315.369 542.217 316.592 543.645 317.99 544.905C324.457 551.038 331.709 555.995 339.487 560.364C340.797 561.12 341.759 562.212 343.069 562.968C345.604 564.396 347.876 565.068 350.322 566.161C351.983 566.833 353.206 568.093 354.866 568.597C355.478 568.765 355.827 568.681 356.439 568.849C361.682 570.613 366.75 571.705 371.557 571.705C371.644 571.705 371.731 571.621 371.819 571.621C372.256 571.621 372.78 571.873 373.129 571.873C386.324 571.873 395.849 565.32 406.335 552.466C418.656 537.596 427.832 520.458 438.842 504.663C445.483 495.422 452.736 486.685 461.125 479.124C462.873 477.527 464.62 475.931 466.543 474.419C475.107 467.278 484.894 461.397 495.117 456.02C515.653 445.35 537.499 438.041 558.733 429.052C580.404 419.895 598.667 406.453 608.629 383.769C612.212 375.536 614.222 366.799 615.795 358.061C615.795 357.977 615.795 357.977 615.795 357.893C615.795 357.809 615.795 357.725 615.795 357.725C616.756 352.517 617.63 347.308 618.241 341.931C619.902 327.901 618.154 313.871 620.077 299.925C620.251 298.833 620.251 297.74 620.426 296.648C621.038 293.288 621.912 290.767 622.785 288.247C624.009 284.971 625.494 282.03 627.592 279.678C628.203 279.006 628.64 277.997 629.252 277.409C632.135 274.889 636.068 273.377 640.262 272.369C643.495 271.613 646.903 271.108 651.098 270.772C662.021 270.1 672.856 271.108 683.692 268.168C686.488 267.412 688.848 265.648 691.557 264.555C692.78 264.051 693.916 263.463 695.052 262.875C702.829 259.011 709.82 253.97 715.762 247.585C716.112 247.165 716.636 247.081 716.985 246.661C717.247 246.409 717.335 246.073 717.597 245.821C719.956 243.048 721.966 240.024 723.889 236.915C725.636 234.143 727.122 231.287 728.52 228.346C729.831 225.406 731.229 222.633 732.19 219.525C734.025 213.56 735.249 207.343 735.511 200.958C735.511 200.538 735.773 200.118 735.773 199.698C735.773 198.522 735.336 197.429 735.336 196.169C735.249 192.557 735.423 188.944 734.812 185.332C734.462 183.063 733.501 181.047 733.064 178.779C730.617 164.245 726.685 150.046 721.18 136.436C714.451 119.886 707.373 103.587 700.382 87.121C697.411 80.232 694.615 73.2589 692.081 66.1179C690.77 62.5053 689.285 58.8928 688.323 55.1962C685.877 46.4589 685.178 38.6458 685.527 31.2527C685.614 28.8163 686.139 26.4639 686.576 24.1116C687.624 18.7348 689.634 13.694 692.343 8.82132C693.741 6.46897 694.615 3.94859 696.275 1.68025C696.363 1.59624 696.363 1.59624 696.45 1.51223C696.8 1.09216 697.237 0.840125 697.586 0.420063H694.266C694.266 0.420063 694.266 0.420063 694.266 0.504075C693.654 1.26019 692.867 1.76426 692.343 2.52038C688.935 7.47712 686.663 12.6019 685.09 17.7266C684.828 18.4828 684.828 19.2389 684.566 19.995C683.343 24.5317 682.731 29.1524 682.731 33.8571C682.731 34.4451 682.469 35.0332 682.469 35.6213C682.556 36.2934 682.731 37.1335 682.818 37.8897C683.168 44.4426 684.129 51.1636 686.226 57.9687C687.799 63.2614 689.984 68.2182 691.994 73.3429C692.168 73.847 692.256 74.2671 692.518 74.8552C692.693 75.1912 692.78 75.5273 692.955 75.8633C697.848 88.4652 703.266 100.815 708.596 113.165C717.597 134.336 725.811 155.591 730.442 178.107C731.578 184.576 732.977 190.96 733.064 197.766C733.064 198.69 733.239 199.614 733.239 200.538C733.151 206.839 731.753 212.972 729.918 218.937C729.132 221.457 728.083 223.809 727.034 226.246C725.462 229.774 723.627 233.135 721.529 236.411C720.044 238.68 718.733 241.116 717.073 243.216C713.84 247.249 709.995 250.693 705.975 253.97C703.091 256.238 699.945 258.087 696.8 259.851C694.79 261.027 692.605 261.951 690.421 262.791C686.139 264.555 681.595 265.984 676.876 266.824C672.245 267.496 667.613 268.168 662.72 268.252H657.564C652.409 268.252 647.34 268.336 642.185 269.26C641.136 269.428 640.612 270.184 639.563 270.436C634.932 271.529 631 273.209 627.854 275.813C626.805 276.737 626.193 278.081 625.232 279.09C623.397 281.274 621.824 284.046 620.601 287.323C620.077 288.667 618.94 289.423 618.504 291.019C617.979 292.868 618.154 294.884 617.805 296.816C617.717 297.068 617.63 297.236 617.63 297.488C617.542 298.076 617.63 298.749 617.542 299.337C617.105 302.781 616.232 306.142 616.319 309.586C616.581 325.801 615.62 341.763 613.086 357.809C611.163 370.159 606.794 380.409 601.289 389.734C598.493 394.607 595.347 399.228 591.502 403.344C588.531 406.537 585.298 409.561 581.715 412.334C576.472 416.45 570.355 420.147 563.539 423.507C561.442 424.515 559.694 425.86 557.51 426.784C538.722 434.513 519.235 440.898 500.71 449.719C498.525 450.727 496.953 452.408 494.855 453.5C491.972 455.012 488.913 456.188 486.117 457.868C479.476 461.817 473.796 466.27 468.116 470.638C465.844 472.403 463.31 473.747 461.212 475.595C453.697 482.064 447.144 489.121 441.289 496.85C439.541 499.118 438.143 501.639 436.57 503.991C435.172 506.008 433.162 507.352 431.852 509.452C423.113 523.062 415.161 537.176 405.112 550.114C394.801 563.724 383.79 569.689 371.731 569.773C367.362 569.605 362.469 568.765 356.963 567.085C354.866 566.328 352.594 565.152 350.41 564.144C347.526 563.052 344.817 561.288 342.021 559.776C334.069 555.155 326.903 549.946 320.437 544.233C318.427 542.385 316.505 540.537 314.495 538.436C309.427 533.396 304.795 528.103 300.776 522.39C298.853 519.786 297.193 517.013 295.445 514.325C291.425 507.772 287.843 500.883 285.046 493.49C284.435 491.893 283.823 490.213 283.211 488.617C280.24 479.964 278.056 470.722 276.57 460.977C276.395 459.633 276.133 458.204 275.959 456.86C274.735 446.947 274.56 437.201 274.997 427.54C275.085 425.439 275.085 423.423 275.172 421.323C275.959 410.821 277.531 400.32 279.891 389.818C280.24 388.306 280.415 386.794 280.852 385.281C281.726 381.669 282.338 377.888 283.299 374.276C283.998 371.335 284.784 368.395 285.483 365.455C285.833 363.942 285.833 362.85 286.182 361.338C287.406 355.877 288.979 350.5 289.765 344.871C290.115 342.267 289.853 339.663 290.027 337.058C290.027 336.806 290.027 336.638 290.027 336.386C291.076 321.768 290.115 307.15 287.144 292.784C285.046 282.702 282.163 272.873 279.192 263.127C278.93 262.287 278.755 261.279 278.493 260.439C273.774 245.485 268.094 230.866 259.967 217.34C254.637 208.519 248.17 201.378 241.092 195.161C239.956 194.153 238.908 193.145 237.772 192.221C226.237 183.147 212.78 177.014 196.876 174.998C188.138 173.822 179.487 173.234 170.836 173.234C169.35 173.234 167.952 173.738 166.466 173.738C162.272 173.906 158.078 173.99 153.708 174.41C150.038 174.746 146.543 176.006 142.873 176.51C132.649 177.939 122.425 179.619 112.376 182.559C107.395 183.903 102.676 185.836 97.7826 187.516C90.7919 189.952 83.7138 191.633 76.8979 194.657C69.645 197.85 62.5669 201.21 55.4014 204.487C43.5172 209.947 31.633 214.904 19.4866 218.097C13.195 219.861 6.90333 220.365 0.524304 221.121V223.473C6.90333 222.549 13.4571 222.129 19.6614 220.449C19.574 220.029 19.8362 220.029 20.0983 219.945ZM45.1775 67.3781C45.4397 67.294 45.7892 67.294 45.964 67.21C46.9252 66.79 47.799 66.0339 48.6729 65.6138C54.2654 63.1774 59.9454 61.0771 65.2758 57.5486C67.1983 56.2884 68.509 54.4401 70.3441 53.0959C76.8105 48.4752 82.9274 42.6784 89.0442 36.7975C95.7728 30.2445 101.802 23.1034 107.307 15.4583C110.89 10.5016 114.123 5.46081 117.094 0.420063H114.298C111.589 4.95674 108.793 9.4094 105.647 13.694C102.152 18.5668 99.0934 23.6915 94.9864 28.1442C94.0251 29.2364 92.8018 30.0765 91.7532 31.0846C85.0246 38.1417 77.5969 44.7787 69.3829 50.8276C62.3921 55.8683 55.0519 60.237 47.0999 63.8495C46.0513 64.2696 45.0901 64.9417 44.0415 65.3618C40.4588 66.874 36.7886 67.7981 33.1185 68.6382C29.6232 69.4784 26.0404 69.8984 22.4577 70.3185C19.6614 70.5705 16.7777 71.0746 13.9814 71.0746C9.43747 71.0746 4.80612 70.4025 0.174768 69.8984V72.9229C4.63135 73.511 9.00055 73.931 13.3697 73.931C24.4675 73.931 34.9536 71.2426 45.1775 67.3781ZM1126.38 23.6915C1131.62 25.2038 1136.69 27.1361 1142.46 27.9762C1149.01 28.9003 1155.48 29.2364 1161.94 29.2364C1165.53 29.2364 1169.2 28.7323 1172.78 28.5643C1174.79 28.4803 1176.62 28.4803 1178.63 28.3122C1180.21 28.2282 1181.96 27.9762 1183.53 27.8922C1187.9 27.5561 1192.18 27.4721 1196.55 27.052C1211.93 25.7078 1227.48 24.8677 1242.77 22.4313C1264.36 18.9028 1271.09 15.2063 1275.89 0.33605H1272.75C1272.57 0.924138 1272.57 1.59624 1272.31 2.18433C1269.34 10.1655 1263.92 14.8702 1255.97 16.9705C1245.92 19.6589 1235.7 20.6671 1225.39 21.8433C1210.62 23.3555 1195.85 24.6157 1181.17 25.7918C1178.9 25.9599 1176.71 26.0439 1174.53 26.2119C1170.68 26.4639 1166.84 26.716 1163.08 26.716C1153.03 26.716 1143.33 25.4558 1133.81 23.3555C1130.4 22.5994 1126.99 21.7592 1123.76 20.7511C1119.65 19.4069 1115.63 17.8107 1111.7 15.8784C1109.43 14.7862 1107.33 13.526 1105.23 12.2658C1101.21 9.91348 1097.11 7.47712 1093.26 4.36865C1092.39 3.61254 1091.6 2.60439 1090.73 1.84828C1090.29 1.42821 1090.03 0.924138 1089.59 0.504075H1087.32C1097.19 10.1655 1108.38 18.1467 1122.01 22.7674C1123.41 23.0194 1124.98 23.2715 1126.38 23.6915ZM929.765 14.2821C932.212 15.7944 934.659 16.4665 936.843 16.4665C940.513 16.4665 943.31 13.8621 945.32 9.91348C945.32 9.91348 945.32 9.91348 945.32 9.82947C945.844 8.82132 946.543 8.23323 946.892 6.97304C947.242 5.71285 947.067 4.28464 947.329 3.02445L947.591 1.68025C947.679 1.17618 947.679 0.756113 947.679 0.252038H945.232C945.145 0.924138 945.145 1.59624 944.97 2.26834C944.096 6.55298 943.397 11.0897 938.504 12.7699C937.455 13.106 936.581 13.274 935.62 13.274C931.688 13.274 928.542 10.4176 925.745 7.64514C923.474 5.3768 921.638 2.77241 919.629 0.252038H916.57C919.017 3.3605 921.027 6.721 923.823 9.57743C925.658 11.4257 927.755 13.0219 929.765 14.2821ZM1007.19 176.51C1009.55 190.624 1011.21 204.655 1011.29 218.937C1011.29 245.401 1010.86 272.033 1012.69 298.497C1013.92 317.063 1012.69 335.378 1013.74 353.777C1014.35 366.127 1014.79 378.897 1019.42 390.658C1024.49 403.512 1033.4 409.897 1043.1 409.897C1047.91 409.897 1052.89 408.301 1057.78 405.108C1064.34 400.824 1069.49 394.775 1073.34 387.55C1079.8 375.368 1081.73 362.094 1082.42 348.652C1082.77 340.251 1082.42 331.934 1082.42 319.5C1081.64 300.093 1083.12 276.905 1090.46 254.39C1099.2 228.094 1113.53 205.243 1130.75 184.155C1138.88 174.242 1147 164.413 1155.13 154.667C1158.01 151.139 1160.2 147.106 1162.03 142.905C1167.1 131.312 1165.44 124.759 1152.94 117.113C1148.66 114.593 1143.59 113.501 1138.7 112.577C1112.48 106.948 1087.32 97.9586 1062.41 88.2972C1044.24 81.2401 1025.97 74.5191 1006.14 74.5191C1005 74.5191 1003.87 74.5191 1002.73 74.6031C993.73 74.9392 988.487 80.316 988.05 89.3893C987.526 101.907 991.895 113.333 994.779 125.095C998.886 142.401 1004.3 159.036 1007.19 176.51ZM1002.64 77.0395H1005.88C1024.58 77.0395 1041.35 82.8364 1061.28 90.5655C1083.65 99.3028 1110.39 109.048 1137.91 114.929C1142.37 115.685 1147.44 116.861 1151.37 119.214C1162.56 125.935 1164.3 130.976 1159.5 142.065C1157.4 146.77 1155.39 150.298 1152.94 153.323L1150.67 156.095C1143.33 165.001 1135.99 173.738 1128.65 182.811C1109.25 206.587 1095.97 229.774 1088.02 253.802C1081.64 273.209 1078.93 295.388 1079.98 319.668C1079.98 323.868 1079.98 327.565 1080.07 331.093C1080.15 337.814 1080.15 343.191 1079.89 348.568C1079.28 360.246 1077.79 373.856 1071.15 386.626C1067.39 393.683 1062.41 399.312 1056.3 403.26C1052.02 406.117 1047.38 407.629 1043.1 407.629C1034.01 407.629 1026.24 401.16 1021.69 389.902C1017.59 379.149 1016.89 367.555 1016.28 356.213L1016.19 353.693C1015.75 344.955 1015.75 335.966 1015.75 327.313C1015.75 317.819 1015.84 308.074 1015.14 298.329C1013.65 276.149 1013.65 253.55 1013.74 231.623V218.937C1013.65 206.167 1012.34 192.557 1009.63 176.09C1007.71 164.329 1004.57 152.903 1001.51 141.813C999.935 136.1 998.449 130.387 997.051 124.591C996.352 121.818 995.565 119.046 994.866 116.273C992.419 107.284 989.973 98.7987 990.322 89.5574C990.584 84.0965 992.944 77.3755 1002.64 77.0395ZM361.42 75.3593C363.779 79.5599 366.314 83.6765 368.673 87.8771C370.683 91.4897 372.78 95.0182 374.79 98.7147C376.363 101.571 378.285 104.512 379.945 107.368C383.004 112.661 385.8 118.122 389.208 123.246C389.47 123.582 389.82 123.834 389.995 124.171C395.238 131.9 401.529 139.125 408.52 145.678C415.336 152.399 423.463 157.524 431.852 162.144C434.735 163.74 437.619 166.177 440.503 167.353C441.551 167.773 442.338 168.697 443.386 169.117C451.95 172.394 460.776 173.99 469.427 173.99C479.563 173.99 489.263 171.302 498.263 166.597C498.525 166.513 498.7 166.429 498.962 166.261C510.06 160.296 519.847 150.971 526.75 137.445C528.061 135.008 528.586 132.236 529.634 129.715C531.294 125.767 532.867 121.818 534.091 117.87C536.712 109.552 538.547 100.983 539.858 92.3298C539.858 92.1618 539.945 91.9097 539.945 91.7417V91.6577C540.295 89.1373 540.994 86.7009 541.256 84.1806C543.179 65.2777 544.402 46.4589 546.15 27.5561C547.023 18.3987 548.247 9.4094 549.47 0.420063C549.47 0.33605 549.47 0.252038 549.47 0.252038H546.936C546.062 6.13292 545.188 11.9298 544.489 17.8107C544.14 21.2552 543.878 24.6997 543.616 28.1442C543.266 32.0928 542.392 36.0414 542.13 39.99C540.994 57.1285 540.033 74.1831 537.499 91.0696C537.411 91.4056 537.411 91.7417 537.324 92.0777C535.838 101.655 533.829 110.981 530.857 119.97C530.508 121.146 529.984 122.154 529.547 123.246C526.314 132.236 522.119 140.889 516.002 148.702C510.672 155.423 504.555 160.548 497.564 164.16C497.215 164.329 496.778 164.497 496.428 164.665C489.525 168.109 482.01 170.209 473.796 170.797C472.048 170.965 470.3 171.05 468.553 171.05C466.281 171.05 464.184 170.545 461.999 170.293C457.542 169.789 453.173 169.117 448.717 167.773C446.182 167.017 443.648 166.177 441.202 165.169C433.599 161.976 426.608 157.608 419.88 152.483C417.608 150.718 415.249 149.038 412.977 147.106C405.462 140.301 398.383 132.488 391.917 122.91C386.324 114.761 381.431 106.192 376.712 97.5386C363.342 73.1749 349.274 49.3994 335.554 25.2038C331.01 17.0545 326.816 8.82132 323.146 0.252038H320.437C323.495 7.98119 326.903 15.5423 330.923 22.8514C341.147 40.494 351.458 57.8846 361.42 75.3593ZM15.6417 703.941C17.9137 702.849 20.3605 702.093 22.4577 700.749C26.39 698.228 29.6232 695.204 32.9437 691.927C35.74 689.155 38.3616 686.382 40.5462 683.19C42.9929 679.661 44.7406 676.049 46.4883 672.1C47.799 668.992 48.8476 665.967 49.7215 662.607C51.1196 657.314 51.7313 652.273 51.7313 646.813C51.7313 645.3 52.343 644.04 52.2556 642.528C52.1682 639.419 51.207 636.731 50.5953 633.875C50.2458 632.026 50.6827 630.178 50.1584 628.33C44.828 611.779 30.0601 600.606 12.9328 600.018C12.2338 600.018 11.5347 599.934 10.8356 599.934C7.95194 599.934 5.24304 600.69 2.44675 601.026C1.74768 601.11 1.31076 601.11 0.611688 601.194C0.524304 601.194 0.349536 601.278 0.262152 601.278V603.714C0.43692 603.714 0.699072 603.63 0.873839 603.546C1.04861 603.546 1.13599 603.546 1.31076 603.462C4.19443 603.042 6.99072 602.79 9.787 602.79C12.059 602.79 14.331 602.958 16.5156 603.294C33.3807 605.982 44.7406 617.828 48.3233 634.127C49.1972 638.243 49.3719 642.444 49.3719 646.645C49.2845 652.021 48.5855 657.062 47.3621 661.935C46.4883 665.295 45.2649 668.572 43.8667 671.848C42.2064 675.713 40.3714 679.493 38.012 682.77C36.0022 685.542 33.6428 687.811 31.2835 690.163C27.8755 693.44 24.6423 696.884 20.4478 699.32C19.1371 700.076 17.7389 700.497 16.4282 701.169C11.4473 703.605 6.02949 705.537 0.262152 706.798V709.738C1.39814 709.738 2.53413 709.738 3.58274 709.486C8.03932 708.562 11.6221 705.873 15.6417 703.941ZM1279.04 138.369C1284.46 157.523 1290.31 162.9 1309.45 167.017C1313.56 167.857 1317.75 168.277 1321.86 168.277C1332.78 168.277 1343.62 165.505 1354.28 162.312C1369.13 157.86 1383.38 151.391 1394.3 139.965C1418.68 114.593 1423.75 76.5354 1392.99 53.432C1385.12 47.6351 1376.3 43.5185 1366.77 41.2502C1352.09 37.6376 1337.32 34.9492 1322.29 34.9492C1317.58 34.9492 1312.86 35.2013 1308.05 35.7893C1295.64 37.3856 1287.69 43.1824 1283.5 55.4483C1279.83 66.3699 1277.9 77.8796 1276.85 89.3053C1276.24 96.1103 1274.76 102.831 1275.63 108.712C1275.28 119.382 1276.42 129.127 1279.04 138.369ZM1278.69 95.3542C1278.95 93.4219 1279.13 91.4056 1279.3 89.3893C1280.52 76.7875 1282.62 65.8658 1285.94 56.1204C1289.61 45.0307 1296.6 39.5699 1308.49 37.9737C1313.03 37.4696 1317.58 37.1335 1322.38 37.1335C1338.72 37.1335 1354.36 40.494 1366.25 43.4345C1375.6 45.7028 1384.16 49.6514 1391.59 55.1962C1403.56 64.3536 1410.55 76.3674 1411.78 90.0614C1413.17 106.612 1406.18 124.171 1392.55 138.285C1383.38 147.946 1370.97 154.835 1353.58 159.96C1341.87 163.488 1331.99 165.757 1321.86 165.757C1317.66 165.757 1313.82 165.421 1309.97 164.581C1291.62 160.632 1286.55 155.843 1281.4 137.697C1278.78 128.203 1277.64 118.794 1278.17 108.712C1277.47 104.428 1278.08 100.059 1278.69 95.3542ZM859.072 9.24138C863.79 22.6834 868.247 36.2094 871.393 50.2395C874.626 64.6056 877.772 79.0558 883.277 92.8339C884.063 94.9342 885.898 96.4464 886.86 98.4627C889.132 102.915 892.015 106.948 894.899 110.981C897.084 113.921 898.22 117.534 900.754 120.138C901.977 121.482 903.288 122.658 904.599 124.003C904.773 124.171 904.948 124.339 905.123 124.591C911.939 131.48 918.842 138.285 925.571 145.174C925.92 145.51 926.182 145.762 926.532 146.098C933.086 152.651 937.368 160.38 942.086 167.857C944.883 172.394 948.203 176.594 950.388 181.635C953.796 189.448 955.631 198.018 957.291 206.671C958.34 211.712 960.087 216.164 960.699 221.541C961.049 224.734 961.66 227.842 962.01 231.034V231.287C963.408 246.577 964.894 262.371 967.777 277.661C970.574 291.86 972.758 306.562 974.768 321.348C977.914 338.907 978.788 356.801 980.098 374.528C980.797 383.601 981.759 392.675 983.244 401.58C983.681 404.268 984.38 406.873 985.079 409.561C985.953 413.678 986.565 417.878 987.876 421.995C990.672 430.312 995.827 436.949 1001.94 442.494C1002.47 442.998 1002.91 443.502 1003.43 443.922C1012.08 451.063 1022.74 455.432 1034.19 455.432C1036.72 455.432 1039.34 455.18 1041.97 454.844C1045.2 454.34 1047.91 452.996 1050.88 452.155C1052.45 451.651 1054.11 451.315 1055.69 450.727C1071.15 444.93 1082.95 434.345 1092.39 420.651C1092.74 420.147 1093.09 419.559 1093.44 419.055C1095.53 415.862 1097.8 412.922 1099.73 409.477C1102.26 404.94 1103.31 400.068 1105.14 395.363C1106.02 393.263 1107.24 391.834 1108.03 389.566C1108.47 388.306 1108.47 387.046 1108.9 385.786C1110.82 379.233 1112.31 372.512 1113.36 365.707C1114.06 361.422 1114.76 357.305 1115.11 353.021C1115.28 350.92 1115.89 348.904 1115.98 346.72C1116.42 339.327 1116.68 331.934 1116.94 324.54C1117.2 317.735 1118.08 310.51 1118.69 303.453C1119.3 296.984 1119.65 290.431 1120.96 283.962C1126.12 258.927 1137.04 237.923 1153.64 220.785C1153.91 220.449 1154.25 220.197 1154.52 219.945C1159.93 214.484 1165.96 209.359 1172.61 204.655C1183.44 197.093 1194.54 189.868 1205.11 181.887C1205.99 181.215 1206.25 180.291 1207.12 179.619C1214.37 173.57 1220.23 167.017 1224.34 159.96C1225.47 158.112 1226.26 156.095 1227.13 154.079C1231.07 145.594 1233.34 136.94 1234.3 128.623C1234.39 128.035 1234.74 127.531 1234.82 126.943C1234.91 126.355 1234.74 125.683 1234.74 125.095C1235.52 115.013 1234.82 105.856 1233.69 98.5467C1233.51 97.4545 1233.77 96.3624 1233.6 95.3542C1233.51 94.6821 1232.99 94.4301 1232.81 93.758C1232.64 93.0019 1232.55 92.0777 1232.38 91.4897C1231.41 87.373 1228.97 84.2646 1226.7 81.1561C1223.2 75.9473 1218.39 72.0828 1212.45 69.2263C1211.32 68.7223 1210.35 67.7141 1209.22 67.294C1208.26 66.958 1207.73 66.1179 1206.68 65.7818C1203.54 64.7737 1200.13 65.0257 1196.9 64.4376C1195.76 64.2696 1194.54 63.7655 1193.4 63.5975C1191.92 63.4295 1190.78 63.5135 1189.3 63.3455C1185.97 63.0094 1182.74 62.0013 1179.33 62.0013C1177.24 61.9172 1175.05 61.9172 1172.95 61.9172C1166.4 61.9172 1159.93 62.0853 1153.38 62.0853C1146.83 62.0853 1140.27 61.8332 1133.72 61.3292C1132.76 61.2451 1131.88 61.0771 1131.01 60.9931C1120.96 59.9009 1111.35 57.4646 1102.17 54.0201C1101.65 53.852 1101.13 53.684 1100.69 53.516C1090.99 49.7354 1081.73 44.9467 1072.73 39.2339C1064.07 33.8571 1055.86 27.8082 1048.17 21.0871C1047.03 20.079 1045.99 18.9868 1044.94 17.9787C1039.17 12.6019 1034.01 6.55298 1029.12 0.168025H1025.89C1027.55 2.43636 1028.51 5.12476 1030.34 7.14107C1033.84 10.9216 1037.6 14.2821 1041.27 17.8107C1042.58 19.0708 1043.71 20.331 1045.11 21.5072C1061.54 36.3774 1079.89 47.9712 1100.51 55.7843C1101.65 56.2044 1102.79 56.5404 1103.92 56.9605C1108.38 58.4727 1112.57 60.321 1117.2 61.4972C1121.57 62.5893 1126.2 62.6734 1130.66 63.1774C1131.1 63.2614 1131.45 63.4295 1131.88 63.4295C1132.5 63.5135 1132.93 63.4295 1133.54 63.5135C1136.78 63.7655 1139.92 64.6056 1143.16 64.6897C1145.08 64.7737 1146.91 64.7737 1148.75 64.7737C1155.65 64.7737 1162.56 64.5216 1169.46 64.5216C1176.01 64.5216 1182.57 64.9417 1189.12 65.5298C1191.74 65.7818 1194.28 66.1179 1196.64 66.6219C1200.66 67.294 1204.68 68.0502 1208.35 69.3944C1210.09 70.0665 1211.23 71.2426 1212.8 72.0828C1216.47 74.015 1220.14 75.9473 1223.2 79.6439C1224.07 80.7361 1224.34 82.0803 1225.12 83.1724C1227.22 86.4489 1229.23 89.7254 1230.19 93.926C1231.59 100.731 1232.46 107.788 1232.64 114.929C1232.64 116.189 1232.55 117.534 1232.55 118.794C1232.46 123.246 1231.59 127.615 1230.89 132.068C1230.1 137.949 1228.36 143.241 1226.35 148.366C1224.69 152.567 1223.03 156.767 1220.58 160.716C1217.78 165.001 1214.03 168.781 1210.18 172.562C1206.68 176.09 1203.89 180.039 1199.34 183.063C1187.29 191.129 1174.96 198.942 1163.52 208.099C1159.5 211.292 1156.18 214.904 1152.68 218.433C1152.42 218.685 1152.24 218.853 1151.98 219.105C1133.81 237.587 1122.27 260.103 1117.55 286.819C1117.03 290.011 1117.12 293.204 1116.77 296.48C1115.63 305.554 1114.84 314.543 1114.49 323.448C1114.41 325.801 1113.97 328.069 1113.88 330.421C1113.71 337.814 1113.1 345.207 1112.48 352.601C1112.05 357.977 1111.09 362.766 1110.3 367.639C1109.16 374.024 1108.03 380.325 1106.02 386.542C1105.32 388.81 1104.27 390.826 1103.48 392.927C1100.43 400.908 1097.02 408.637 1092.56 415.61C1091.95 416.534 1091.34 417.458 1090.73 418.382C1085.13 426.532 1078.58 434.009 1070.28 440.058C1065.21 443.838 1059.79 446.695 1054.29 448.795C1053.41 449.131 1052.54 449.299 1051.67 449.551C1046.34 451.231 1040.92 452.408 1035.15 452.408C1031.39 452.408 1027.46 451.987 1023.62 451.231C1016.01 449.635 1009.72 446.191 1004.57 441.654C1004.04 441.234 1003.6 440.73 1003.17 440.226C998.274 435.521 994.255 429.724 991.371 422.751C989.798 418.971 989.011 415.106 988.05 411.241C987.264 407.965 986.39 404.772 985.866 401.412C985.079 396.455 984.468 391.498 984.118 386.542C982.72 364.95 980.361 343.527 977.477 322.104C977.389 321.684 977.389 321.264 977.302 320.844C974.943 306.982 972.496 291.776 970.137 276.401C966.903 259.347 965.505 242.04 963.932 224.65C962.447 208.603 958.602 193.481 952.31 179.283C951.699 177.939 951.087 176.594 950.388 175.25C946.193 166.765 941.387 158.532 934.833 150.971C932.824 148.702 930.552 146.686 928.454 144.502C928.367 144.418 928.28 144.25 928.192 144.166C925.309 141.309 922.425 138.369 919.454 135.512C914.997 131.144 910.628 126.691 906.259 122.238C902.239 118.122 899.53 113.417 896.385 108.88C893.588 105.1 890.879 101.319 888.87 97.0345C886.161 91.5737 883.976 85.8608 882.141 79.8959C879.694 71.9147 877.247 64.0176 875.412 55.9524C873.228 46.963 871.131 37.9737 868.509 28.9843C867.373 25.0357 865.625 21.2552 864.315 17.3906C862.392 11.5097 860.208 5.79686 858.11 0H855.751V0.0840125C857.062 3.3605 858.023 6.30094 859.072 9.24138ZM392.441 83.0044C398.471 95.7743 405.636 107.872 414.637 118.626C415.249 119.382 415.773 120.306 416.385 120.978C416.909 121.566 417.171 122.238 417.695 122.742C421.278 126.607 425.472 129.043 429.405 132.068C431.065 133.244 432.376 135.008 434.123 136.1C434.386 136.268 434.648 136.268 434.91 136.436C437.706 138.117 440.765 139.125 443.736 140.301C448.192 142.065 452.649 143.073 457.105 143.661C458.941 143.829 460.426 144.922 462.261 144.922C464.708 144.922 467.155 144.754 469.689 144.418C473.796 143.829 476.767 141.561 480.262 140.049C482.01 139.293 483.845 138.873 485.505 137.865C490.748 134.756 495.117 130.471 498.962 125.431C499.574 124.591 500.535 124.339 501.147 123.414C501.409 123.078 501.409 122.658 501.671 122.238C502.545 120.894 503.768 120.138 504.642 118.794C512.856 104.344 515.565 88.2132 516.264 71.7467C516.963 57.0445 515.828 42.2583 514.779 27.4721C514.604 24.3636 514.517 21.1712 514.342 18.0627C514.08 12.0978 514.255 6.21693 514.255 0.252038H511.458V7.3931C511.458 10.5856 511.808 13.7781 511.895 16.9705C511.983 18.4828 511.895 19.911 511.983 21.3392C512.157 24.0276 512.332 26.8 512.507 29.4884C512.594 31.0006 512.594 32.5969 512.682 34.1091C513.031 39.2339 512.944 44.3586 513.119 49.4834C513.468 56.2044 513.905 63.0094 513.555 69.7304C512.594 87.7931 509.798 105.352 499.574 120.894C498.7 122.154 497.652 123.078 496.69 124.255C492.758 129.211 488.389 133.496 483.495 136.268C482.185 137.024 480.787 137.361 479.388 137.949C473.971 140.301 468.465 142.065 462.611 142.065C460.601 142.065 458.504 141.393 456.494 141.141C452.824 140.721 449.154 139.881 445.571 138.537C442.512 137.445 439.541 136.268 436.57 134.588C434.473 133.328 432.551 131.396 430.453 129.799C425.822 126.355 421.191 122.91 417.521 118.626C416.647 117.618 415.773 116.357 414.986 115.265C410.617 109.636 406.51 103.755 403.19 97.2865C386.324 64.9417 369.896 32.3448 352.07 0.33605H349.012C351.633 5.71285 354.255 11.1737 357.313 16.3824C369.896 38.1417 381.606 60.237 392.441 83.0044ZM404.588 13.106C408.433 20.247 411.578 27.7241 414.637 35.2013C415.249 36.6295 415.86 37.9737 416.472 39.4019C419.618 47.215 422.589 55.1962 425.822 62.9254C429.23 70.6545 433.25 77.9636 438.667 84.3486C438.93 84.6846 439.192 85.0207 439.454 85.3567C440.328 86.3649 440.939 87.6251 441.988 88.5492C443.037 89.5574 444.26 89.3053 445.396 90.0614C446.008 90.4815 446.357 91.0696 447.056 91.4056C448.192 91.9937 449.241 91.9097 450.289 92.3298C452.037 92.9179 453.785 94.6821 455.533 94.6821C458.94 94.6821 462.349 93.506 465.669 91.2376C471.087 87.4571 472.922 81.2401 474.495 75.1912C474.844 74.015 474.582 72.7549 474.844 71.5787C474.932 70.8226 474.932 70.0665 475.019 69.3103C475.806 61.8332 475.194 54.3561 473.971 47.047C471.786 33.521 468.378 20.247 465.494 6.80502C465.057 4.53668 464.883 2.60439 464.446 0.420063H461.737C462.174 2.35235 462.523 4.36865 462.96 6.38495C463.747 10.1655 463.921 14.1141 464.883 17.8947C468.028 30.7486 470.912 43.6025 472.66 56.7925C473.184 60.8251 473.097 64.7737 472.66 68.6382C472.572 69.3944 472.572 70.1505 472.485 70.8226C471.873 74.9392 470.737 78.8878 468.728 82.7523C465.756 88.5492 461.387 91.4897 456.232 91.4897C454.397 91.4897 452.299 90.6495 450.202 89.8934C449.328 89.5574 448.454 89.2213 447.581 88.7172C442.512 85.7768 438.93 81.4922 435.959 76.5354C430.628 68.2182 426.871 59.1448 423.637 49.9035C417.433 32.5129 409.132 16.2984 400.306 0.33605H397.859C399.869 3.94859 401.617 7.64514 403.626 11.1737C403.889 11.8458 404.238 12.4339 404.588 13.106ZM635.019 174.998H637.116C655.642 174.998 666.303 162.564 664.468 142.065C662.982 125.851 656.428 112.157 643.321 102.411C639.738 99.8069 635.806 98.4627 631.961 98.4627C626.368 98.4627 620.95 101.067 617.105 106.108C606.182 120.138 603.823 136.1 607.231 153.155C609.59 164.749 619.814 174.998 635.019 174.998ZM619.115 107.62C622.349 103.335 627.067 100.983 631.961 100.983C635.456 100.983 638.864 102.159 641.835 104.428C653.719 113.249 660.535 125.935 662.021 142.317C662.895 152.399 660.623 160.464 655.642 165.841C651.273 170.293 644.894 172.646 637.116 172.646C636.33 172.73 635.631 172.73 635.019 172.73C620.339 172.73 611.6 162.396 609.678 152.819C606.182 135.176 609.241 120.306 619.115 107.62ZM788.815 124.171C791.873 125.515 794.67 126.355 797.204 126.355C802.097 126.355 806.292 123.582 809.438 117.786C815.03 107.956 816.778 96.7824 818.525 85.7768C821.147 69.7304 820.273 54.0201 814.156 38.8978C811.36 31.8408 807.253 25.8759 800.787 21.2552C796.505 18.1467 791.611 16.8025 786.543 16.8025C769.853 16.8025 751.677 31.5887 747.832 45.9549C746.608 50.4915 745.298 54.7762 745.647 59.4809C746.346 72.5028 751.24 84.0125 757.881 94.9342C765.658 107.452 775.358 117.954 788.815 124.171ZM749.929 47.8031L750.191 46.4589C753.949 32.3448 771.688 19.1549 786.63 19.1549C791.436 19.1549 795.718 20.4991 799.476 23.1875C805.068 27.052 809.001 32.3448 812.059 39.7379C817.652 53.684 819.05 68.5542 816.341 85.4408L816.253 86.1969C814.506 96.6144 812.846 107.368 807.515 116.609C804.806 121.482 801.486 123.918 797.379 123.918C795.194 123.918 792.747 123.246 790.038 121.986C778.329 116.609 768.629 107.368 760.24 93.59C752.638 81.2401 748.88 70.3185 748.269 59.3129C747.832 55.4483 748.88 51.6677 749.929 47.8031ZM1127.86 727.633C1142.89 735.194 1159.15 737.714 1175.66 738.218C1190.52 737.714 1204.68 735.698 1217.17 726.456C1241.46 708.394 1240.85 676.553 1230.54 661.179C1220.84 646.813 1207.56 641.016 1192.09 641.016C1189.65 641.016 1187.02 641.184 1184.4 641.436C1161.94 644.04 1144.64 656.39 1130.14 673.445C1125.94 678.317 1122.18 683.442 1118.51 688.735C1113.62 696.044 1112.48 704.361 1113.88 712.594C1115.02 720.408 1121.66 724.356 1127.86 727.633ZM1120.44 689.995C1124.28 684.366 1128.04 679.409 1131.8 674.957C1148.14 655.97 1164.92 646.056 1184.58 643.788C1187.02 643.536 1189.56 643.368 1191.92 643.368C1207.82 643.368 1219.71 649.669 1228.36 662.439C1238.06 676.805 1239.02 707.218 1215.69 724.692C1203.36 733.85 1189.03 735.53 1175.49 735.95C1156.61 735.362 1141.76 732.085 1128.91 725.616C1122.8 722.424 1117.2 718.979 1116.07 712.258C1114.76 703.773 1116.24 696.296 1120.44 689.995ZM1356.02 734.27C1360.39 734.27 1364.85 733.682 1369.22 732.673C1404.09 724.44 1424.53 695.036 1428.9 662.103C1431.61 642.612 1423.75 626.061 1413.17 610.939C1392.46 581.367 1368.61 554.315 1346.94 525.414C1325.88 497.522 1300.71 473.663 1276.59 448.879C1260.78 432.329 1246.1 414.854 1231.5 397.211C1224.42 388.642 1217.78 379.233 1207.3 374.108C1203.89 372.512 1201.01 371.587 1198.21 371.587C1194.19 371.587 1190.61 373.436 1186.67 377.552C1177.59 386.962 1171.64 398.555 1165.18 409.897C1153.56 430.228 1141.41 450.055 1128.13 469.294C1108.55 497.354 1083.74 518.357 1051.4 529.363C1043.01 532.135 1034.89 536 1027.46 541.209C1017.41 548.182 1013.13 559.356 1016.28 571.201C1021.87 592.708 1044.15 610.267 1065.73 610.267C1078.93 609.847 1091.16 605.394 1103.05 600.27C1119.83 593.044 1136.69 585.903 1154.78 583.635C1164.92 582.291 1174.96 581.619 1185.01 581.619C1208.17 581.619 1230.89 585.483 1252.74 595.313C1280.96 608.167 1296.87 631.942 1304.64 661.851C1308.31 675.965 1311.28 690.163 1315.65 704.277C1322.29 725.616 1338.63 734.27 1356.02 734.27ZM1307 661.263C1298.26 627.826 1280.79 605.478 1253.78 593.213C1232.9 583.803 1210.36 579.266 1185.01 579.266C1175.31 579.266 1165.09 579.939 1154.43 581.283C1135.82 583.635 1118.6 591.028 1102 598.169C1090.81 603.042 1078.67 607.579 1065.56 607.999C1045.02 607.999 1023.88 591.28 1018.46 570.697C1015.58 559.944 1019.51 549.61 1028.77 543.141C1035.67 538.352 1043.45 534.488 1052.1 531.631C1083.3 520.962 1108.9 501.051 1130.05 470.638C1142.2 453.08 1153.99 434.177 1167.19 411.073L1169.72 406.537C1175.31 396.539 1180.64 387.13 1188.33 379.149C1191.74 375.536 1194.71 374.024 1198.03 374.024C1200.31 374.024 1202.93 374.696 1205.99 376.208C1214.55 380.409 1220.58 387.886 1226.35 395.111L1229.4 398.724C1243.3 415.61 1258.24 433.505 1274.58 450.559C1279.48 455.6 1284.37 460.557 1289.35 465.514C1308.31 484.836 1328.06 504.747 1344.75 526.927C1353.75 538.94 1363.28 550.87 1372.54 562.38C1385.47 578.51 1398.84 595.145 1410.99 612.367C1423.83 630.598 1428.55 645.888 1426.37 661.935C1421.74 696.968 1399.54 723.18 1368.43 730.489C1364.24 731.497 1359.96 732.001 1355.85 732.001C1344.93 732.001 1325.53 728.305 1317.84 703.605C1314.95 694.364 1312.68 684.87 1310.41 675.713C1309.45 670.84 1308.23 666.051 1307 661.263ZM1378.83 499.623C1376.47 496.766 1373.59 494.33 1371.14 491.557C1359.87 478.535 1349.21 467.026 1338.63 457.448L1338.55 457.364C1337.59 456.524 1336.89 455.432 1335.93 454.592C1329.9 449.215 1323.95 443.754 1318.01 438.377C1312.51 433.421 1307.18 428.296 1301.76 423.087C1293.98 415.442 1286.38 407.629 1279.48 399.06C1278.86 398.303 1278.25 397.547 1277.64 396.791C1268.12 384.357 1260.51 370.999 1254.31 356.969C1253.26 354.617 1252.47 352.181 1251.51 349.744C1246.1 336.05 1241.64 321.936 1238.93 306.898C1238.93 306.73 1238.84 306.478 1238.75 306.226C1236.92 296.144 1235.08 285.979 1232.73 275.897C1232.38 274.385 1231.85 272.957 1231.41 271.445C1230.28 267.16 1229.49 262.791 1227.74 258.591C1223.2 247.585 1215.51 241.452 1205.37 241.452C1202.75 241.452 1200.04 241.788 1197.07 242.628C1194.45 243.384 1192.62 245.149 1190.17 246.157C1188.07 246.997 1186.15 247.333 1183.97 248.593C1183.09 249.013 1182.83 249.853 1182.04 250.357C1177.06 253.55 1172.78 257.75 1168.94 262.455C1167.36 264.471 1165.53 266.236 1164.22 268.336C1163.34 269.68 1162.12 270.436 1161.33 271.865C1159.67 275.057 1158.97 278.502 1157.66 281.778C1157.05 283.29 1156 284.802 1155.48 286.315C1154.95 287.659 1154.87 289.003 1154.52 290.347C1152.86 295.724 1151.46 301.101 1150.5 306.646C1149.62 311.266 1148.92 315.803 1148.4 320.424C1148.31 321.684 1147.96 322.86 1147.79 324.204C1147.18 331.85 1146.39 339.495 1145.43 347.056C1144.21 359.07 1141.58 370.663 1138.44 382.005C1137.3 386.122 1136.17 390.322 1134.77 394.355C1130.92 405.445 1126.03 416.03 1120.17 426.28C1117.55 430.732 1114.76 435.017 1111.87 439.134C1109.43 442.662 1106.81 446.023 1104.1 449.215C1100.69 453.332 1097.28 457.364 1093.52 460.977C1090.2 464.085 1086.53 466.606 1082.95 469.378C1072.64 477.107 1061.28 483.576 1047.56 487.189C1037.6 489.709 1027.55 490.969 1017.32 490.969C1008.67 490.969 999.934 490.045 991.283 488.197C984.642 486.937 979.137 484.332 974.331 481.056C972.409 479.796 970.573 478.367 968.913 476.771C964.719 472.571 961.311 467.446 959.039 461.145C958.078 458.54 957.378 455.6 956.767 452.576C956.155 449.551 955.806 446.779 955.456 443.754C953.446 428.716 952.398 413.426 952.485 398.387C952.66 380.493 950.65 363.186 947.329 346.216C947.067 344.787 946.892 343.359 946.63 341.931C942.086 321.012 935.096 300.597 925.483 280.938C919.978 269.764 914.386 258.675 908.269 247.753C908.181 247.669 908.181 247.501 908.094 247.417C908.007 247.249 907.919 247.165 907.744 246.997C903.812 240.024 899.967 233.135 895.161 226.666C893.413 224.397 891.054 223.053 889.219 220.953C886.947 218.433 884.413 216.248 881.966 213.98C876.286 208.771 870.257 204.066 863.528 200.37C862.392 199.782 861.606 198.69 860.47 198.102C855.314 195.581 850.683 193.481 846.226 192.053C845.265 191.717 844.566 191.129 843.605 190.792C840.284 189.784 837.226 189.28 834.255 189.28C825.254 189.28 817.477 193.901 810.661 203.142C797.99 220.449 786.019 238.344 772.037 254.474C759.978 268.588 747.22 281.862 733.326 294.296C716.811 308.914 698.373 321.012 682.993 337.142C682.207 337.982 681.77 339.159 680.983 340.083C673.293 348.568 667.002 357.221 662.021 366.631C661.671 367.387 661.322 368.059 660.885 368.815C660.448 369.739 659.574 370.411 659.137 371.335C651.622 386.122 644.981 401.58 635.631 415.274C635.281 415.694 635.019 416.198 634.757 416.618C628.465 425.608 621.387 433.589 613.261 440.142C613.173 440.226 613.086 440.226 613.086 440.31C604.872 446.947 595.609 452.155 585.036 455.684C565.986 462.153 546.412 466.354 527.624 473.411C510.06 480.048 493.37 488.365 480.262 502.143C478.165 504.411 477.116 507.184 475.194 509.62C471.349 514.325 467.941 519.281 465.057 524.658C462.96 528.523 460.863 532.471 459.203 536.588C458.853 537.512 458.241 538.268 457.892 539.193C456.406 543.309 456.057 546.922 455.008 550.87C453.872 555.407 451.775 559.523 451.076 564.312C450.989 565.068 451.251 565.824 451.163 566.581C449.94 576.074 450.027 585.063 451.688 594.053C451.688 594.137 451.688 594.137 451.775 594.221C452.299 597.161 453.785 600.018 454.659 602.874C456.406 608.671 458.504 614.468 461.562 619.929C462.436 621.441 462.523 623.205 463.484 624.717C466.193 629.002 469.601 632.698 472.66 636.647C472.747 636.731 472.747 636.731 472.747 636.815C473.009 637.067 473.097 637.319 473.359 637.571C476.155 641.1 478.689 644.964 481.748 648.409C497.739 666.556 511.371 686.214 524.391 706.63C526.838 710.578 529.809 714.275 532.43 718.223C535.751 723.516 538.984 728.053 542.043 732.169C543.441 734.018 544.489 735.95 545.888 737.798C556.286 751.156 571.404 758.633 587.308 758.633C592.551 758.633 597.794 757.793 603.037 756.197C604.26 755.777 605.046 754.937 606.27 754.517C615.969 751.576 625.407 746.619 634.844 739.478C637.291 737.714 639.651 735.698 641.923 733.682C643.321 732.505 644.631 731.581 646.03 730.321C652.933 724.02 658.438 716.627 663.506 708.898C664.031 708.058 664.817 707.638 665.341 706.798C673.73 693.019 681.245 678.821 689.547 665.043C692.78 659.75 695.926 654.29 699.421 649.417C704.752 642.192 710.694 635.555 716.811 629.17C718.733 627.154 720.568 624.969 722.578 622.953C729.918 615.644 737.608 608.755 745.56 602.034C763.211 587.08 780.863 572.209 798.165 556.751C812.059 544.317 825.866 531.463 841.944 522.054C857.324 513.233 873.403 508.528 890.268 508.528C894.113 508.528 898.045 509.116 901.977 509.62C904.948 510.04 907.657 510.712 910.279 511.384C914.823 512.56 918.93 514.325 922.6 516.677C924.522 517.853 926.445 519.198 928.192 520.71C931.251 523.23 934.047 526.171 936.581 529.447C939.902 533.732 942.96 538.352 945.756 543.477C947.067 545.829 948.64 548.182 949.864 550.534C960.175 571.789 969.874 593.381 983.244 612.871C988.662 620.937 994.866 628.162 1001.59 634.799C1001.77 634.967 1001.94 635.051 1002.12 635.219C1007.36 640.344 1012.87 645.216 1019.33 649.165C1031.83 656.978 1044.33 660.927 1057 660.927C1067.83 660.927 1078.58 658.07 1089.42 652.189C1106.11 643.116 1122.36 633.287 1138.88 624.045C1145.78 620.181 1152.94 617.492 1160.28 615.224C1161.68 614.804 1163.08 614.132 1164.48 613.712C1172.78 611.527 1181.26 610.267 1189.82 610.183H1190.08C1203.98 610.183 1216.73 612.619 1228.27 617.66C1229.4 618.164 1230.72 618.332 1231.76 618.92C1236.4 621.273 1240.59 624.549 1244.7 627.994C1246.1 629.17 1247.67 630.01 1248.98 631.27C1252.65 634.883 1255.79 639.503 1258.94 644.292C1260.16 646.224 1261.74 647.821 1262.79 649.837C1263.66 651.517 1264.1 653.282 1264.8 654.962C1266.72 659.582 1268.38 664.455 1269.51 669.58C1270.3 673.529 1271 677.561 1271.35 681.594C1271.44 682.518 1271.52 683.526 1271.61 684.534C1271.96 689.995 1271.96 695.456 1271.7 700.833C1271.61 703.017 1271.52 705.117 1271.26 707.386C1270.74 712.93 1269.69 718.391 1268.29 723.852C1267.94 725.196 1267.68 726.54 1267.24 727.801C1266.19 731.161 1264.71 734.018 1263.22 736.958C1261.74 739.73 1260.16 742.335 1258.24 744.771C1257.02 746.367 1255.79 747.964 1254.48 749.308C1252.04 751.828 1249.15 753.845 1246.27 755.945C1240.42 759.809 1233.86 763.002 1226.17 764.85C1211.23 768.379 1195.94 768.799 1180.56 769.891C1166.14 770.647 1151.63 770.647 1137.21 772.075C1135.82 772.243 1134.33 772.075 1132.93 772.327C1132.41 772.411 1132.06 772.747 1131.53 772.831C1127.86 773.335 1124.19 773.251 1120.52 774.176C1115.46 775.52 1111.96 778.712 1107.5 780.645C1102.87 782.661 1098.15 784.593 1094.13 787.282C1088.54 791.062 1083.82 795.851 1079.28 800.892C1078.32 801.984 1077.27 802.824 1076.22 803.748H1080.15C1082.69 800.555 1084.78 796.691 1087.76 794.087C1089.24 792.826 1090.9 791.902 1092.47 790.726C1099.99 785.181 1108.47 780.897 1117.99 778.04C1122.97 776.612 1128.04 775.352 1133.37 774.68C1142.72 773.251 1152.24 774.092 1161.68 773.503C1176.62 772.411 1191.57 771.907 1206.42 770.479C1207.03 770.395 1207.65 770.311 1208.35 770.227C1213.94 769.639 1219.62 769.471 1225.21 768.295C1235.7 766.026 1244.52 760.986 1252.12 754.601C1253.26 753.677 1254.48 752.92 1255.53 751.912C1262 745.527 1266.63 737.63 1269.78 728.389C1269.86 727.969 1270.3 727.801 1270.39 727.381C1270.82 726.036 1270.82 724.44 1271.17 723.096C1271.87 720.156 1273.1 717.551 1273.45 714.443C1273.71 712.51 1273.62 710.578 1273.8 708.646C1273.97 706.797 1274.06 704.865 1274.15 703.017C1274.49 697.388 1274.49 691.759 1274.23 686.046C1274.15 685.038 1274.32 684.198 1274.23 683.19C1274.15 682.182 1273.88 681.426 1273.8 680.418C1273.53 677.813 1273.62 675.209 1273.18 672.604C1272.92 671.092 1272.14 669.916 1271.87 668.404C1270.74 663.111 1269.08 658.322 1267.15 653.954C1266.46 652.189 1265.93 650.341 1265.06 648.661C1264.88 648.409 1264.88 648.073 1264.71 647.737C1263.66 645.804 1262.17 644.544 1260.95 642.696C1250.2 625.977 1233.95 613.88 1212.98 609.763C1205.72 608.251 1198.56 607.579 1191.48 607.579C1182.13 607.579 1173.04 609.091 1164.04 611.443C1162.82 611.779 1161.59 612.367 1160.37 612.703C1154.43 614.468 1148.4 616.232 1142.63 619.004C1127.69 626.146 1113.8 635.303 1099.55 643.62C1092.82 647.485 1086.01 650.761 1078.93 653.618C1071.5 656.642 1064.25 657.986 1057.08 657.986C1045.2 657.986 1033.75 654.206 1022.48 647.737C1007.1 638.915 995.565 626.061 985.603 611.359C971.972 591.196 962.097 568.849 951.087 547.09C950.213 545.241 948.728 543.729 947.679 541.965C945.582 538.184 943.397 533.9 941.3 530.791C940.426 529.531 939.29 529.027 938.416 527.851C937.105 526.171 936.406 524.238 935.008 522.642C933.348 520.794 931.163 520.206 929.416 518.693C927.056 516.761 924.697 514.997 922.163 513.653C918.318 511.552 914.298 509.704 910.016 508.612C909.143 508.444 908.531 507.772 907.657 507.604C906.084 507.352 904.599 507.352 903.026 507.184C900.579 506.848 898.307 505.839 895.773 505.755C893.763 505.671 891.841 505.587 889.918 505.587C862.829 505.587 839.585 517.013 819.05 534.74C788.728 561.036 758.143 587.164 727.821 613.544C725.549 615.56 723.801 618.08 721.617 620.265C719.519 622.281 717.684 624.633 715.587 626.734C708.946 633.707 702.48 640.68 696.8 648.409C696.625 648.661 696.363 648.913 696.188 649.165C694.877 651.013 693.916 653.114 692.693 654.962C687.537 662.607 682.206 670.168 677.837 678.485C672.332 689.071 666.39 699.488 659.661 709.318C653.807 717.971 647.34 725.532 640.087 731.833C637.903 733.682 635.806 735.53 633.534 737.294C624.97 743.595 615.445 748.636 604.959 752.248C599.279 753.929 593.337 755.105 587.045 755.357H585.472C570.617 755.357 558.82 748.048 549.121 737.042C542.917 729.985 537.586 722.172 532.693 714.107C515.478 686.13 495.904 659.918 474.582 635.135C470.3 630.178 466.892 624.633 463.659 619.004C460.776 613.796 458.853 608.335 457.105 602.874C456.144 599.766 454.571 596.825 453.96 593.549C452.387 584.727 452.125 575.57 453.435 565.909C453.96 561.876 455.445 558.011 456.406 554.063C457.717 548.266 459.203 542.469 461.3 537.26C463.135 532.471 465.582 528.187 467.941 523.986C470.475 519.534 473.446 515.249 476.679 511.216C479.651 507.52 482.534 503.655 486.03 500.463C487.515 499.118 489.175 498.11 490.748 496.85C501.409 488.197 513.643 481.308 527.537 476.183C546.062 469.378 565.287 465.009 583.9 458.876C594.91 455.264 604.173 449.635 612.736 443.082C613.261 442.662 613.785 442.326 614.222 441.99C622.873 435.101 630.388 426.868 636.854 417.458L636.942 417.374C636.942 417.29 637.029 417.29 637.029 417.206C639.563 413.51 642.272 409.897 644.544 405.865C651.185 394.187 656.603 381.921 662.72 369.991C668.662 358.734 675.391 349.072 683.255 340.671C690.595 332.69 698.809 325.549 707.548 318.912C727.209 303.621 746.172 287.575 762.949 269.008C765.571 266.068 767.668 262.623 770.289 259.599C771.426 258.255 772.649 257.33 773.785 256.07C783.921 244.308 793.097 231.539 802.01 219.021C804.02 216.164 806.466 213.728 808.389 210.871C817.477 197.429 825.254 192.137 834.429 192.137C837.663 192.137 841.245 192.893 844.915 194.153C851.382 196.337 856.887 199.53 862.48 202.638C869.82 206.755 876.286 211.712 882.054 217.424C884.063 219.441 886.335 221.205 888.17 223.389C894.812 230.95 900.666 239.268 905.647 248.509C917.007 269.512 927.493 290.767 935.707 313.283C939.203 322.86 941.999 332.69 944.096 342.687C944.271 343.527 944.358 344.451 944.533 345.376C946.455 354.869 947.854 364.53 948.465 374.276C949.601 392.843 949.689 411.409 950.65 430.06C950.825 432.833 951.698 435.605 951.961 438.377C952.31 441.906 952.572 445.687 953.097 449.047C953.359 450.559 953.883 451.735 954.233 453.164C954.67 455.348 954.582 457.532 955.194 459.633C955.718 461.229 956.505 462.405 957.116 463.833C957.378 464.421 957.641 464.925 957.815 465.429C959.651 469.546 961.922 473.159 964.631 476.267C964.806 476.435 964.893 476.603 965.068 476.771C972.146 484.584 981.496 489.541 992.856 491.221C1001.59 492.566 1010.33 493.322 1018.81 493.322C1037.77 493.322 1056.3 489.457 1073.69 479.208C1076.83 477.359 1079.19 474.587 1082.16 472.487C1086.09 469.63 1090.03 466.774 1093.78 463.245C1097.98 459.381 1101.82 455.18 1105.49 450.811C1107.59 448.207 1109.69 445.435 1111.7 442.578C1114.23 439.05 1117.29 436.025 1119.56 432.245C1120.61 430.564 1120.96 428.716 1121.92 426.952C1122.71 425.608 1123.58 424.599 1124.37 423.171C1129.61 413.762 1133.54 404.016 1136.78 394.271C1138.26 390.154 1139.31 385.87 1140.45 381.585C1143.68 369.403 1146.13 357.305 1147.61 345.544C1147.7 344.955 1147.88 344.451 1147.96 343.863C1148.57 337.058 1149.27 330.169 1149.97 323.364C1150.41 317.903 1151.46 313.451 1152.33 308.578C1153.47 302.025 1154.69 295.556 1156.88 289.171C1157.49 287.239 1158.27 285.391 1159.06 283.542C1161.16 278.25 1163.52 273.293 1166.4 268.672C1167.8 266.488 1169.46 264.808 1171.03 262.875C1174.44 258.591 1178.29 254.726 1183.27 251.702C1185.45 250.273 1187.9 249.181 1190.34 248.089C1193.32 246.745 1196.2 245.149 1199.34 244.561C1201.27 244.14 1203.01 243.972 1204.76 243.972C1208.43 243.972 1211.49 245.317 1214.46 246.997C1215.07 247.417 1216.04 247.417 1216.65 247.837C1219.88 250.189 1222.59 253.634 1224.51 258.086C1229.58 269.848 1231.41 282.45 1233.6 294.968C1234.21 298.497 1235.26 301.941 1235.87 305.47C1235.96 305.806 1235.96 306.226 1236.05 306.562C1236.05 306.814 1236.22 306.982 1236.22 307.234C1239.19 322.44 1243.56 337.226 1249.33 351.676C1250.2 353.777 1250.9 355.877 1251.78 357.893C1253.09 360.918 1253.78 364.11 1255.36 367.051C1261.04 377.72 1267.68 387.55 1274.76 397.043C1275.11 397.463 1275.19 397.967 1275.54 398.387C1276.42 399.48 1277.38 400.32 1278.25 401.412C1281.49 405.444 1284.46 409.645 1288.04 413.426C1290.49 416.03 1293.37 418.214 1295.9 420.735C1305.52 430.312 1315.48 439.554 1325.35 448.375L1327.54 450.307C1330.51 452.912 1333.3 455.768 1336.19 458.456C1336.54 458.792 1336.8 459.129 1337.15 459.465C1353.14 474.167 1367.65 490.381 1381.45 507.352C1398.67 528.691 1416.41 549.778 1436.16 568.597C1437.2 569.521 1438.25 570.445 1439.3 571.369V567.337C1431.87 560.28 1424.36 553.223 1417.46 545.493C1404.61 530.875 1391.94 515.165 1378.83 499.623ZM833.905 332.438C831.109 331.766 828.312 330.925 825.516 330.925C825.079 330.925 824.468 331.009 823.943 331.009C813.632 331.597 804.02 335.042 794.932 339.579C776.057 349.24 758.93 361.254 743.55 376.208C727.646 391.582 716.985 410.653 709.208 431.404C697.411 463.413 680.546 492.145 659.312 518.273C654.506 524.07 651.098 530.791 647.865 537.68C644.806 543.981 642.622 550.366 647.166 556.919C651.36 562.884 657.302 564.648 663.768 564.648C664.468 564.648 665.254 564.648 665.953 564.564C679.148 563.808 691.207 559.019 702.567 552.382C722.228 541.209 738.045 525.33 752.813 508.108C773.348 484.08 794.582 460.473 817.302 438.461C827.701 428.464 838.624 419.139 848.586 408.637C855.227 401.664 860.295 393.599 863.616 384.357C870.781 362.766 856.363 337.394 833.905 332.438ZM861.169 383.685C858.198 392.255 853.304 400.152 846.663 407.125C840.197 413.846 833.293 420.231 826.652 426.532C822.895 429.976 819.225 433.337 815.467 436.865C795.631 456.02 775.183 478.199 750.803 506.68C737.957 521.634 721.966 538.604 701.256 550.45C688.411 557.843 677.138 561.624 665.604 562.296C664.992 562.38 664.293 562.38 663.594 562.38C656.865 562.38 652.234 560.28 649.001 555.659C645.418 550.534 646.641 545.577 649.874 538.772C652.933 532.303 656.341 525.498 660.972 519.786C682.818 492.902 699.771 463.497 711.218 432.329C719.869 409.477 730.879 391.666 745.036 377.972C759.891 363.606 776.931 351.424 795.806 341.763C806.292 336.554 815.292 333.95 823.943 333.446C824.468 333.362 824.817 333.362 825.341 333.362C827.613 333.362 829.885 333.95 832.245 334.538L833.206 334.79C842.993 336.974 851.731 343.443 857.237 352.685C863.179 362.346 864.577 373.772 861.169 383.685ZM1227.92 462.153C1219.18 456.356 1211.58 453.584 1204.76 453.584C1194.19 453.584 1185.01 460.053 1174.79 471.982C1165.88 482.316 1160.2 494.918 1156.79 508.192C1153.64 520.29 1158.36 530.959 1169.11 536.84C1182.04 544.149 1196.11 547.006 1210.27 549.442C1228.44 552.55 1246.53 554.567 1264.71 555.743C1265.41 555.827 1266.11 555.827 1266.63 555.827C1270.65 555.827 1274.58 555.155 1278.51 554.399C1286.47 553.055 1291.19 545.914 1289.52 537.848C1287.52 527.767 1282.71 518.945 1277.03 510.712C1264.01 491.137 1247.49 475.007 1227.92 462.153ZM1285.42 547.678C1283.67 550.03 1281.14 551.542 1278.17 552.046C1273.97 552.803 1270.39 553.391 1266.63 553.391C1266.02 553.391 1265.41 553.391 1264.88 553.307C1246.27 552.13 1228.01 549.946 1210.7 547.006C1197.33 544.737 1183.09 541.965 1170.25 534.656C1160.37 529.195 1156.26 519.45 1159.06 508.528C1162.73 494.33 1168.67 482.484 1176.62 473.243C1187.2 460.977 1195.59 455.768 1204.68 455.768C1211.05 455.768 1218.22 458.372 1226.52 463.917C1245.83 476.603 1262.17 492.734 1275.02 511.72C1281.75 521.466 1285.42 529.615 1287.17 538.016C1287.95 541.713 1287.25 545.073 1285.42 547.678ZM1415.27 755.609C1406.97 761.238 1397.79 765.858 1388.01 769.723C1386.43 770.311 1385.04 771.235 1383.46 771.823C1366.95 777.452 1350.26 782.241 1333.74 787.87C1324.92 790.894 1317.92 796.271 1311.98 802.572C1311.55 803.076 1311.02 803.496 1310.58 804H1313.82C1313.91 803.916 1313.99 803.832 1313.99 803.832C1320.55 797.195 1328.94 792.322 1338.98 788.962C1353.23 784.257 1367.73 780.392 1382.06 775.604C1384.69 774.68 1386.7 772.915 1389.23 771.907C1399.37 767.959 1408.63 763.17 1417.02 757.457C1420.34 755.189 1423.4 752.668 1426.54 750.064C1429.43 747.712 1432.83 745.779 1435.46 743.091C1437.2 741.411 1438.51 739.394 1440 737.546V732.841C1435.46 738.05 1430.91 743.259 1425.76 747.628C1422.35 750.4 1418.94 753.256 1415.27 755.609ZM1428.29 10.5856C1417.8 5.96489 1406.79 3.10846 1395.7 0.33605H1384.16C1390.37 1.93229 1396.57 3.3605 1402.77 4.95674C1403.74 5.20878 1404.61 5.54483 1405.48 5.79686C1413.78 8.0652 1421.91 10.8376 1429.86 14.1981C1434.06 15.9624 1436.5 19.2389 1439.91 21.6752V18.9868C1435.98 16.2984 1432.83 12.6019 1428.29 10.5856ZM1433.1 797.363C1427.15 800.051 1421.04 801.9 1414.92 804H1422.09C1424.8 802.908 1427.59 802.068 1430.3 800.892C1431.7 800.303 1433.1 799.967 1434.49 799.295C1435.37 798.875 1436.24 798.203 1437.2 797.783C1438.08 797.363 1439.04 796.943 1439.91 796.523V793.414C1437.82 794.591 1435.98 796.019 1433.8 797.027C1433.53 797.111 1433.36 797.279 1433.1 797.363ZM1426.02 167.941C1416.84 173.15 1407.32 177.35 1397.62 181.215C1396.13 181.803 1394.65 182.559 1393.16 183.147C1382.5 187.18 1371.58 190.624 1360.57 193.733C1344.66 198.102 1328.59 201.966 1313.12 207.931C1290.75 216.668 1276.68 232.463 1272.48 256.574C1272.48 256.574 1272.49 256.658 1272.4 256.658V256.742C1272.31 257.33 1272.05 257.834 1271.96 258.507C1268.55 281.694 1269.34 304.041 1275.02 325.381C1275.19 325.969 1275.11 326.473 1275.28 327.145C1275.54 327.901 1275.89 328.573 1276.16 329.413C1277.99 335.63 1280.26 341.679 1283.15 347.728C1284.28 350.164 1285.68 352.517 1286.99 354.869C1289 358.482 1290.4 362.178 1292.85 365.707C1293.72 366.967 1295.03 367.891 1295.9 369.067C1301.41 376.46 1307.61 383.433 1314.95 389.986C1320.11 394.691 1325.79 398.639 1331.56 402.672C1333.39 403.932 1334.79 405.361 1336.71 406.621C1338.46 407.797 1340.38 408.637 1342.22 409.729C1345.1 411.409 1347.55 413.678 1350.52 415.274C1353.93 417.038 1357.42 418.718 1360.92 420.483C1366.77 423.507 1372.63 426.448 1378.48 429.22C1393.25 436.529 1408.1 443.922 1422.79 451.315C1428.81 454.424 1433.97 458.624 1439.74 462.153V458.372C1428.55 451.651 1417.19 445.266 1405.4 439.554C1396.83 435.437 1388.18 431.32 1379.62 427.204C1375.69 425.271 1371.84 423.339 1368 421.407C1359.52 417.122 1351.22 412.502 1343 407.461C1339.07 405.192 1335.49 402.588 1331.82 399.984C1325.35 395.363 1319.24 390.406 1313.64 385.113C1308.23 379.905 1303.07 374.444 1298.53 368.395C1295.12 363.858 1291.97 359.07 1289.18 354.113C1288.21 352.349 1287.17 350.584 1286.2 348.82C1283.06 342.519 1280.44 335.882 1278.34 328.741C1277.99 327.649 1277.64 326.641 1277.38 325.549C1274.58 315.635 1272.66 305.386 1272.66 295.136C1272.66 294.968 1272.66 294.884 1272.66 294.716C1272.75 289.927 1272.75 285.139 1272.83 280.35C1273.01 275.897 1273.36 271.445 1273.8 266.824C1274.06 263.715 1274.15 260.607 1274.76 257.582C1274.76 257.414 1274.84 257.246 1274.93 257.078C1279.3 235.319 1291.36 220.449 1311.2 211.964C1318.01 209.023 1325 206.755 1332.08 204.655C1333.57 204.234 1334.96 203.73 1336.45 203.31C1343.44 201.378 1350.43 199.53 1357.42 197.597C1370.79 193.817 1383.99 189.364 1397.01 184.324C1398.32 183.819 1399.54 183.147 1400.85 182.643C1408.45 179.535 1416.14 176.594 1423.48 172.73C1429.69 169.453 1434.93 165.421 1439.91 161.304V157.439C1437.9 159.204 1436.07 161.136 1433.8 162.648C1431.35 164.497 1428.81 166.345 1426.02 167.941ZM836.09 277.325H835.041C817.739 277.325 803.233 285.895 789.339 294.968C768.804 308.578 750.279 324.876 731.404 340.755C707.198 361.002 689.547 386.038 676.527 414.938C668.138 433.253 658.089 450.391 643.932 464.925C629.077 479.964 611.95 490.381 592.463 497.27C576.297 503.151 559.782 506.932 543.878 513.485C525.44 521.046 511.021 532.471 506.652 553.727C503.768 567.253 507.526 579.855 513.206 591.784C526.488 620.013 541.518 647.317 560.393 672.016C567.646 681.51 576.559 688.903 587.57 693.019C591.502 694.532 595.434 695.204 599.104 695.204C608.454 695.204 616.931 690.919 624.795 684.786C633.184 678.317 639.126 669.496 644.981 660.843C662.458 634.631 685.265 614.048 709.995 595.649C734.986 577.082 758.58 557.003 779.552 533.9C788.815 523.734 798.252 513.905 807.69 504.075C824.817 486.433 844.479 472.234 865.975 460.893C872.791 457.364 879.345 453.5 885.811 449.551C901.715 439.806 910.279 424.767 914.298 407.125C923.91 365.203 911.065 329.413 882.753 299.337C870.344 286.147 854.79 277.661 836.09 277.325ZM911.939 406.705C907.57 425.608 898.657 439.05 884.588 447.619C877.247 452.156 871.043 455.684 864.926 458.876C842.294 470.806 822.545 485.424 806.03 502.479C795.98 513.065 786.805 522.474 777.805 532.303C758.842 553.307 736.21 573.302 708.684 593.717C679.235 615.476 658.438 636.395 643.059 659.498L642.359 660.507C636.854 668.572 631.174 676.889 623.31 682.854C614.571 689.575 606.794 692.683 599.104 692.683C595.609 692.683 592.026 692.011 588.444 690.667C578.569 686.971 569.743 680.166 562.316 670.504C545.538 648.577 530.683 623.205 515.391 590.692C508.662 576.494 506.74 565.236 509.012 554.063C512.769 536.084 523.779 524.154 544.839 515.501C553.839 511.72 563.277 508.864 572.452 506.092C579.356 503.991 586.346 501.807 593.337 499.287C613.96 491.977 631.087 481.224 645.767 466.354C658.438 453.416 668.924 437.369 678.799 415.778C692.43 385.534 710.169 361.506 733.064 342.435L740.317 336.302C756.308 322.692 772.998 308.662 790.737 296.816C804.631 287.743 818.613 279.594 835.041 279.594H836.002C852.867 279.846 867.985 286.987 881.005 300.765C910.366 332.102 920.852 367.723 911.939 406.705ZM1363.54 267.748C1350.34 272.957 1341.61 283.458 1340.47 298.497C1339.51 312.443 1345.8 323.28 1356.2 331.934C1367.91 341.595 1381.54 344.955 1396.13 344.955H1397.71C1413.17 344.787 1427.24 341.511 1439.91 333.194V329.077C1428.2 337.31 1415.01 342.435 1397.71 342.687H1396.13C1380.58 342.687 1368 338.571 1357.77 330.253C1346.94 321.18 1342.04 310.846 1342.92 298.665C1343.97 285.139 1351.39 275.225 1364.5 269.932C1372.63 266.572 1381.37 264.892 1390.37 264.892C1408.19 264.892 1425.93 271.865 1439.91 283.626V280.434C1425.49 269.008 1407.93 262.539 1390.37 262.539C1381.28 262.455 1372.1 264.219 1363.54 267.748ZM1406.53 220.281C1387.13 220.281 1368.35 224.397 1349.91 231.202C1347.29 232.127 1344.66 232.547 1342.04 233.639C1341.43 233.891 1340.99 234.311 1340.38 234.563C1338.63 235.319 1336.89 235.571 1335.14 236.411C1332.08 237.924 1329.9 240.276 1327.27 242.124C1325.53 243.384 1323.6 244.56 1322.03 245.905C1319.32 248.341 1317.14 250.945 1314.95 253.802C1312.68 256.658 1310.5 259.515 1308.75 262.707C1307.61 264.892 1306.83 267.16 1305.95 269.428C1304.47 273.125 1303.07 276.905 1302.28 281.022C1301.41 285.307 1301.23 289.675 1301.06 294.212C1301.06 295.892 1300.54 297.404 1300.62 299.169C1300.62 299.757 1300.8 300.345 1300.88 300.933C1300.97 302.277 1300.62 303.621 1300.71 304.966C1300.88 306.73 1301.85 308.242 1302.11 310.006C1303.16 316.475 1304.9 322.608 1307.35 328.489C1307.79 329.497 1308.05 330.589 1308.57 331.681C1312.07 339.075 1316.88 345.964 1322.73 352.265C1323.6 353.273 1324.65 354.029 1325.53 354.953C1328.15 357.557 1330.6 360.246 1333.65 362.682C1334.7 363.522 1336.1 363.69 1337.15 364.53C1346.76 371.671 1356.99 377.72 1367.91 380.745C1381.45 384.441 1395.08 386.122 1408.54 386.122C1413.78 386.122 1419.12 385.45 1424.36 385.029C1424.62 385.029 1424.8 385.029 1425.06 385.029C1425.14 385.029 1425.14 385.029 1425.23 385.029C1430.13 384.609 1435.02 383.433 1439.91 382.677V380.073C1434.93 380.997 1429.95 382.089 1424.88 382.425C1419.12 382.845 1413.35 383.181 1407.67 383.181C1406.62 383.181 1405.66 383.013 1404.61 383.013C1393.34 382.761 1382.5 381.333 1371.93 378.729C1367.38 377.468 1362.93 375.704 1358.56 373.856C1355.85 372.68 1353.23 371.755 1350.52 370.327C1347.55 368.815 1344.75 366.799 1341.87 364.866C1336.89 361.422 1331.99 357.893 1327.62 353.525C1327.01 352.937 1326.31 352.349 1325.7 351.676C1319.93 345.628 1314.95 338.823 1311.11 331.261C1310.67 330.421 1310.41 329.413 1310.06 328.489C1307.35 322.692 1305.78 316.475 1304.64 310.09C1304.12 306.814 1303.42 303.621 1303.24 300.093C1303.16 298.245 1303.42 296.564 1303.42 294.8C1303.51 290.095 1303.77 285.475 1304.64 281.106C1305.43 277.241 1306.83 273.629 1308.23 270.1C1309.1 267.916 1309.71 265.648 1310.85 263.547C1312.42 260.607 1314.52 258.171 1316.53 255.65C1318.71 252.878 1320.81 249.937 1323.6 247.585C1324.74 246.493 1326.23 245.737 1327.45 244.813C1331.64 241.704 1336.19 238.932 1341.61 236.579C1344.14 235.403 1346.85 234.815 1349.47 233.807C1368.26 226.918 1387.31 222.801 1406.79 222.801C1417.72 222.801 1428.81 224.734 1440 227.002V223.305C1438.6 223.053 1437.38 222.465 1435.98 222.297C1426.02 220.953 1416.23 220.281 1406.53 220.281ZM486.816 775.016C485.68 774.092 484.544 773.167 483.321 772.243C473.621 764.262 464.358 755.777 455.707 746.367C454.571 745.191 453.435 744.015 452.387 742.755C440.503 729.481 429.667 715.703 419.618 701.085C406.423 681.846 390.169 666.303 371.731 652.609C362.818 645.972 354.691 638.495 347.002 630.514C338.089 621.357 329.874 611.695 321.66 602.034C310.3 588.592 298.941 575.15 287.843 561.624C277.619 549.274 269.667 535.832 263.637 521.634C263.463 521.214 263.288 520.794 263.113 520.374C257.171 506.176 252.977 491.137 250.442 475.343C248.083 460.557 246.598 445.687 245.986 430.732C245.199 408.133 248.695 386.122 254.2 364.53C258.569 347.476 261.453 330.421 261.191 312.863C261.191 312.359 261.278 311.855 261.278 311.35C261.278 311.266 261.278 311.266 261.278 311.182C261.278 309.67 261.628 308.158 261.453 306.646C259.792 280.938 252.889 256.994 238.995 236.075C238.82 235.739 238.733 235.403 238.558 235.067C238.034 234.227 237.247 233.639 236.723 232.799C234.713 229.942 233.053 226.918 230.694 224.229C229.907 223.305 228.859 222.969 228.072 222.129C224.926 219.021 221.431 216.5 217.848 214.148C213.129 210.955 208.061 208.435 202.643 206.587C199.323 205.411 196.002 204.318 192.419 203.646C190.847 203.394 189.536 202.554 187.963 202.386C183.681 201.882 179.487 201.63 175.292 201.63C174.593 201.63 173.894 201.966 173.195 201.966C172.845 201.966 172.496 201.966 172.146 201.966C163.233 202.302 154.233 203.814 145.232 206.335C138.94 208.099 132.911 210.871 126.794 213.644C124.173 214.82 121.551 215.408 119.017 216.752C118.056 217.256 117.182 217.845 116.221 218.349C114.473 219.273 112.638 219.693 110.978 220.701C107.133 222.885 103.55 225.49 99.8799 227.926C98.4817 228.766 97.0836 229.69 95.6854 230.614C86.5975 236.663 77.4222 242.628 68.3342 248.761C60.5571 254.054 52.1682 258.423 43.8667 262.791C35.3905 267.244 27.0016 271.697 18.0885 274.973C12.4085 277.157 6.20426 278.586 0.174768 280.266V283.962C12.5833 280.182 24.7297 275.813 36.4391 270.352C38.0994 269.596 39.8471 268.756 41.42 267.916C53.9159 261.699 66.1497 254.81 77.7717 246.157C90.7045 236.579 103.987 227.506 118.23 220.029C122.425 217.845 126.445 216.332 130.552 214.652C143.921 209.023 157.728 204.991 172.234 204.402C173.545 204.318 174.855 204.318 176.166 204.318C181.409 204.318 186.39 204.991 191.196 205.831C195.391 206.503 199.061 207.931 202.818 209.191C208.323 211.208 213.479 213.98 218.372 217.508C220.907 219.357 223.528 221.037 225.713 223.305C227.723 225.238 229.383 227.758 231.218 230.026C235.325 235.235 238.121 241.368 241.267 247.165C245.025 254.474 248.869 261.699 251.316 269.344C253.064 274.889 253.85 281.274 254.899 287.323C256.385 295.22 258.307 302.865 258.569 311.098C258.569 311.855 258.482 312.527 258.482 313.199C258.831 330.421 255.336 346.972 251.229 363.438C245.549 385.954 241.879 408.805 243.102 432.161C244.588 463.329 248.782 494.078 261.278 522.81C261.365 523.062 261.453 523.314 261.628 523.566C262.764 526.087 263.55 528.775 264.773 531.295C272.201 546.502 282.163 560.112 292.911 572.798C307.941 590.356 322.709 608.167 338.525 625.053C340.535 627.238 342.458 629.422 344.555 631.606C345.604 632.698 346.565 633.875 347.613 634.883C355.478 642.864 363.779 650.509 372.78 657.062C390.868 669.916 405.549 685.878 418.22 704.109C421.191 708.394 425.123 711.838 428.181 715.955C435.871 726.288 443.474 736.79 451.775 745.947C454.484 748.888 457.542 751.324 460.339 754.097C462.785 756.617 464.62 759.725 467.155 762.162C470.563 765.354 474.495 767.875 477.99 770.815C480.612 772.999 483.233 775.016 485.855 777.116C494.244 783.753 502.283 790.726 510.847 797.111C513.468 799.127 515.478 801.564 517.925 803.748H522.119C520.197 801.816 518.624 799.715 516.439 798.035C506.652 790.558 496.69 782.913 486.816 775.016ZM117.269 390.91H117.007L117.269 393.263C124.61 393.263 128.804 399.144 131.163 404.016C134.047 409.813 135.358 415.358 135.27 420.399C135.183 428.128 131.251 436.361 123.91 436.361C121.551 436.361 119.017 435.605 116.221 434.009L113.861 432.665C110.366 430.648 107.045 428.8 104.511 425.86C100.404 421.155 98.0448 416.366 97.3457 411.241C97.6079 408.973 98.3943 406.369 99.7925 403.848C103.812 396.875 109.754 393.179 117.007 393.179V390.826C108.793 390.826 101.977 395.111 97.6079 402.672C96.1223 405.36 95.1611 408.217 94.899 411.493C95.7728 417.458 98.6565 422.751 102.676 427.372C106.084 431.236 110.628 433.421 114.91 435.941C118.143 437.789 121.114 438.629 123.823 438.629C132.561 438.629 137.542 429.472 137.63 420.483C137.717 414.518 136.057 408.637 133.261 403.008C129.94 395.951 124.697 390.91 117.269 390.91ZM215.489 748.636C210.595 744.267 207.013 739.142 203.43 734.018C201.857 731.833 200.284 729.733 198.886 727.297C196.09 722.424 193.73 717.215 191.546 711.922C190.41 709.234 189.448 706.293 188.487 703.269C185.691 695.036 183.419 686.719 181.759 678.233C181.234 675.377 180.623 672.52 180.186 669.664C178.7 660.843 177.389 652.021 175.904 643.284C175.205 639.335 174.069 635.639 173.37 631.69C173.02 629.842 172.758 628.078 172.409 626.229C172.234 625.137 171.709 624.381 171.535 623.373C169.7 615.308 167.078 607.411 164.194 599.682C162.447 595.229 160.437 591.112 158.34 586.996C156.505 583.383 155.543 579.434 153.184 575.906C151.524 573.47 149.427 571.453 147.679 569.185C147.242 568.597 146.98 567.757 146.455 567.169C144.708 564.984 142.785 563.136 140.95 560.952C130.115 547.93 118.318 535.832 105.997 524.07C88.9569 507.94 69.645 495.254 49.0224 484.92C32.6816 476.687 16.3408 468.454 0.174768 459.969V462.573C14.5931 470.134 28.7493 478.115 43.3424 485.256C64.8389 495.674 84.9372 508.444 102.676 524.742C116.658 537.68 129.94 551.122 141.999 565.992C143.135 567.421 144.358 568.765 145.407 570.193C149.951 576.242 153.359 582.711 156.679 589.264C158.689 593.381 160.874 597.413 162.359 601.698C165.068 608.839 167.428 616.232 169.088 623.877C169.612 626.398 170.224 628.834 170.748 631.27C173.894 647.821 176.341 664.539 179.749 681.006C179.924 681.762 180.011 682.518 180.186 683.274C180.797 686.13 181.147 689.071 181.846 692.011C182.982 696.38 184.817 700.329 186.215 704.529C186.739 705.957 186.914 707.47 187.439 708.982C187.701 709.738 188.138 710.242 188.4 710.998C190.672 716.963 193.555 722.592 196.701 728.053C198.624 731.497 200.896 734.606 203.08 737.546C205.003 740.234 206.226 743.259 208.498 745.695C217.761 755.777 229.121 763.254 240.743 770.395C252.627 777.704 264.948 784.257 275.347 794.003C278.58 797.027 280.939 800.556 283.561 803.832H286.707C279.279 794.087 270.366 785.433 259.268 778.376C244.413 769.051 228.946 760.65 215.489 748.636ZM959.039 662.271C952.66 646.561 945.931 631.018 938.416 615.896C937.717 614.468 937.28 613.039 936.581 611.611C934.309 607.159 932.037 603.882 929.765 600.102C927.843 596.909 926.532 593.549 924.435 590.44C923.474 589.096 922.075 588.172 921.114 586.828C917.794 582.375 914.473 578.09 910.89 574.478C909.579 573.134 908.094 572.63 906.696 571.537C904.948 570.025 903.812 567.841 901.89 566.413C899.268 564.564 896.559 563.556 893.85 562.296C893.326 562.044 892.889 561.792 892.452 561.54C886.161 558.851 879.782 557.003 873.053 557.003C868.334 557.003 863.441 557.591 858.547 558.683C856.275 559.187 854.178 560.196 851.994 560.868C851.644 560.952 851.207 561.12 850.858 561.204C842.818 563.892 835.216 567.421 828.138 572.209C803.146 589.012 778.242 606.403 755.522 626.398C738.569 641.184 724.063 658.406 713.752 679.073C707.635 691.255 702.13 703.605 696.45 715.787C692.343 724.776 687.624 733.598 682.469 742.167C674.866 755.021 666.128 766.866 656.341 778.124C653.545 781.485 651.273 785.097 648.214 788.458C643.845 793.498 639.563 798.623 635.456 803.916H639.126C641.835 800.303 644.457 796.607 647.515 793.162C648.564 792.07 649.263 790.726 650.311 789.634C651.972 787.702 653.807 785.265 655.38 783.501C663.332 774.596 669.973 765.774 676.09 757.037C678.187 754.013 680.109 750.82 682.032 747.796C683.779 744.939 685.964 742.083 687.537 739.226C691.294 732.757 694.178 725.868 697.411 719.063C699.246 715.283 701.693 712.006 703.266 708.058C711.48 688.231 720.655 668.572 734.637 651.937C746.871 637.403 760.765 624.549 775.969 613.292C795.369 598.925 814.331 584.223 834.779 571.369C840.197 568.009 845.789 565.32 851.644 563.304C851.819 563.22 852.081 563.136 852.256 563.136C858.11 561.204 864.14 559.944 870.344 559.523C871.131 559.44 871.917 559.44 872.703 559.44C879.607 559.44 886.073 560.952 892.103 563.556C892.452 563.724 892.714 563.892 893.064 564.06C898.919 566.833 904.424 570.697 909.317 575.738C916.57 583.131 922.338 591.616 927.668 600.438C930.552 605.31 933.348 610.267 935.969 615.308C946.718 636.563 955.019 658.994 964.107 680.922C965.505 684.282 967.34 687.391 968.826 690.751C971.098 695.876 973.632 700.833 975.991 705.957C978.875 711.922 981.322 718.223 984.555 724.02C990.934 735.278 993.643 746.956 991.283 759.977C988.662 774.428 987.701 789.046 987.176 803.664H989.885C990.41 789.13 991.371 774.68 993.905 760.313C996.264 747.208 993.992 735.11 987.439 723.684C976.079 704.361 967.515 683.274 959.039 662.271ZM191.633 776.696C189.885 775.436 188.05 774.428 186.39 772.999C181.147 768.799 177.389 763.59 173.719 758.381C171.884 755.777 169.7 753.508 168.127 750.652C165.505 745.947 163.67 740.823 161.835 735.698C160.175 731.077 158.514 726.456 157.204 721.164C155.806 715.619 154.582 709.99 153.708 704.361C152.835 698.816 152.135 693.271 151.436 687.643C150.825 682.266 150.213 676.973 149.689 671.596C146.805 641.1 141.824 611.359 126.794 584.223C125.658 582.207 124.085 580.527 122.949 578.594C121.551 576.242 119.803 574.142 118.318 571.789C114.997 566.917 112.114 561.876 108.356 557.339C106.434 554.987 104.162 553.223 102.152 551.038C100.579 549.274 98.8312 547.594 97.171 545.914C90.0928 538.772 82.5778 532.303 74.7133 526.759C73.7521 526.086 73.053 525.162 72.0918 524.49C71.2179 523.902 70.2567 523.566 69.3829 522.978C63.1786 518.945 56.7996 515.417 50.1584 512.308C47.7116 511.132 45.2649 509.872 42.7308 508.864C35.6527 505.924 28.225 503.487 20.6226 501.387C19.2245 501.051 17.8263 500.631 16.4282 500.295C12.4959 499.287 8.82578 497.942 4.80612 497.186C3.32059 496.934 1.74768 496.766 0.262152 496.514V500.127C5.24304 501.051 10.3987 501.303 15.2922 502.479C17.302 502.983 19.3119 503.571 21.3217 504.075C28.1376 505.923 34.7788 508.192 41.3326 510.88C44.4784 512.224 47.5369 513.653 50.5079 515.165C56.3626 518.021 62.2174 521.046 67.8099 524.826C69.8198 526.087 71.6548 527.599 73.6647 528.943C81.4418 534.656 88.6947 540.789 95.3359 547.342C96.9088 548.938 98.4817 550.45 100.055 552.13C105.909 558.431 111.065 565.236 115.871 572.293C117.531 574.646 119.279 576.914 120.765 579.35C132.299 598.505 140.251 620.013 143.834 644.292C146.193 660.507 147.766 676.973 149.776 693.356C150.213 697.052 150.737 700.749 151.349 704.529C151.873 707.89 152.135 711.334 152.747 714.695C153.271 717.467 154.495 719.819 155.107 722.508C155.631 724.608 155.806 726.792 156.417 728.893C156.942 730.741 157.815 731.833 158.427 733.597C160.437 739.73 162.971 745.611 166.03 751.156C168.476 755.693 171.535 759.557 174.593 763.338C176.778 766.026 177.914 769.219 180.535 771.739C191.808 782.241 205.09 789.886 218.198 797.867C221.256 799.715 223.965 802.068 226.936 804H231.742C230.868 803.076 229.995 802.068 228.859 801.312C216.363 793.33 203.692 785.517 191.633 776.696ZM191.371 306.394C190.584 301.773 189.186 297.236 186.477 293.204C181.584 285.895 174.681 281.946 166.816 281.946C164.194 281.946 161.486 282.366 158.777 283.29C145.32 287.659 133.785 295.64 122.949 304.629C98.0448 325.381 70.781 342.603 44.828 361.842C39.2354 366.043 34.0797 370.831 29.6232 376.544C13.3697 397.631 17.4768 416.366 33.2933 434.933C40.284 443.082 48.8476 449.467 57.586 455.6C82.4031 472.907 107.307 489.961 132.212 507.1C140.251 512.561 148.727 517.265 157.99 519.954C160.874 520.794 163.495 521.214 166.03 521.214C174.593 521.214 180.885 516.173 184.642 506.428C190.322 491.725 191.895 476.351 191.546 460.641C191.109 441.738 189.623 422.835 188.312 403.932C187.264 387.634 188.225 371.335 189.798 355.121C191.283 338.823 194.517 322.776 191.371 306.394ZM187.351 354.953C185.429 374.192 184.992 389.818 185.866 404.1L186.652 415.022C187.701 430.06 188.749 445.519 189.099 460.725C189.536 478.451 187.351 492.734 182.37 505.671C178.962 514.661 173.632 518.945 166.03 518.945C163.758 518.945 161.311 518.525 158.777 517.769C150.825 515.417 142.873 511.468 133.697 505.251L130.377 502.983C106.958 486.937 82.7526 470.302 59.0715 453.836C50.8575 448.039 42.2064 441.738 35.2157 433.589C18.3506 413.846 17.302 396.623 31.633 377.972C35.6527 372.848 40.5462 368.143 46.4009 363.774C55.9257 356.801 65.7127 349.828 75.2376 343.191C91.7531 331.597 108.793 319.584 124.697 306.394C133.523 299.085 145.407 290.011 159.65 285.475C162.097 284.718 164.544 284.214 166.903 284.214C173.807 284.214 180.098 287.827 184.468 294.464C186.652 297.74 188.05 301.605 189.011 306.814C191.371 319.332 189.973 332.102 188.575 344.451C188.05 347.98 187.701 351.424 187.351 354.953ZM118.143 659.078C118.143 658.91 118.056 658.742 118.056 658.49C117.968 656.894 118.143 655.298 118.056 653.702C115.696 624.885 106.958 599.934 91.8405 578.93C89.4812 575.654 87.1218 572.377 84.5877 569.437C81.8788 566.413 79.1699 563.472 76.1114 560.7C69.8198 554.735 63.0912 549.358 55.5762 545.157C54.615 544.569 54.0033 543.813 53.0421 543.225C38.3616 534.992 22.1955 530.707 5.15565 530.539C3.49536 530.539 1.74768 530.539 0.0873839 530.455V533.48C11.9716 533.732 23.7684 534.824 35.4779 538.772C47.9738 543.057 58.5472 549.61 68.0721 557.339C69.5576 558.515 71.2179 559.523 72.6161 560.784C82.3157 569.437 90.6172 579.687 97.5205 591.784C103.375 602.118 107.395 612.872 110.279 624.045C110.453 624.801 110.541 625.725 110.715 626.566C113.162 636.983 114.823 647.653 115.609 658.574C115.696 660.507 115.522 662.187 115.609 664.119C116.308 679.157 115.958 694.112 115.085 709.234C114.823 714.779 114.473 720.408 114.036 725.952C113.774 729.817 113.424 733.682 112.987 737.63C112.201 745.023 111.24 752.416 109.492 759.725C109.492 759.809 109.492 759.809 109.492 759.893C108.007 766.026 105.21 770.731 101.977 775.016C101.278 775.94 100.841 777.032 99.9672 777.956C95.8602 782.325 90.8793 785.685 84.5003 787.87C68.7712 793.078 52.343 795.011 35.9148 796.607C24.6423 797.615 13.3697 797.783 1.92245 797.783C1.31076 797.783 0.611688 797.783 0 797.783V800.555C3.49536 800.555 7.0781 800.555 10.5735 800.555C27.0016 800.471 43.2551 798.875 59.4211 796.103C59.858 796.019 60.2075 795.935 60.5571 795.935C65.7127 795.011 70.8684 794.507 76.024 793.33C84.675 791.314 92.8891 788.542 99.8799 782.241C100.754 781.485 100.928 780.477 101.628 779.636C102.414 778.796 102.851 777.704 103.55 776.78C107.395 771.823 110.191 766.446 111.677 760.566V760.482C111.677 760.398 111.677 760.313 111.677 760.229C112.551 756.617 113.687 753.172 114.211 749.392C114.823 745.107 115.085 740.907 115.434 736.622C115.522 735.53 115.609 734.438 115.784 733.345C116.658 722.424 117.182 711.586 117.968 700.665C118.93 688.399 118.318 676.133 117.706 663.951C118.056 662.439 118.318 660.759 118.143 659.078ZM795.718 708.478C793.796 708.478 791.873 709.066 789.776 710.242C778.94 716.291 770.464 741.831 785.232 752.92C787.854 754.937 790.65 756.029 793.971 756.197C801.049 755.525 805.418 750.484 808.476 745.107C814.331 734.942 811.535 720.24 803.321 712.174C800.874 709.654 798.34 708.478 795.718 708.478ZM806.379 743.931C802.796 750.232 798.864 753.424 793.796 753.845C791.436 753.761 789.077 752.836 786.805 751.072C780.077 746.031 779.552 737.966 779.902 733.597C780.513 724.692 785.494 715.283 791.087 712.174C792.835 711.25 794.407 710.746 795.806 710.746C797.728 710.746 799.738 711.754 801.573 713.687C809.438 721.5 811.535 734.942 806.379 743.931ZM881.092 748.3C880.044 740.907 879.956 733.513 879.432 726.12C878.82 714.107 878.296 701.925 879.257 688.819C879.869 680.838 880.481 672.856 880.918 664.875C881.529 650.257 881.529 635.807 869.296 624.549C863.528 619.34 857.062 617.156 850.333 617.156C849.11 617.156 847.974 617.24 846.75 617.324C818.001 620.433 792.922 632.698 770.552 651.265C767.231 654.038 764.784 657.314 761.901 660.339C761.202 661.095 760.153 661.599 759.454 662.355C758.93 662.943 758.58 663.783 758.056 664.371C751.852 671.512 746.434 679.073 741.977 687.223C741.89 687.391 741.715 687.559 741.628 687.811C733.151 703.605 727.209 720.912 722.403 738.89C716.636 760.482 711.131 782.073 706.062 803.832H708.946C715.5 775.184 722.927 746.703 731.404 718.643C734.462 708.562 738.394 698.9 743.288 689.743C743.463 689.407 743.637 689.155 743.812 688.903C748.269 680.754 753.687 673.193 759.803 666.051C761.114 664.539 762.512 663.195 763.911 661.767C769.59 655.886 776.057 651.013 782.698 646.393C788.116 642.528 793.534 638.999 799.126 635.975C804.195 633.286 809.263 630.514 814.506 628.414C824.468 624.549 834.604 621.441 845.265 620.097C846.401 620.013 847.537 619.845 848.673 619.845C863.266 619.845 874.976 629.842 877.51 645.384C879.607 658.07 878.034 670.756 876.898 683.358C876.374 689.239 876.286 695.12 876.112 700.917C876.024 702.765 875.849 704.697 875.762 706.545C875.762 707.049 875.849 707.638 875.849 708.142C875.762 713.687 876.112 719.147 876.374 724.692C876.548 726.877 876.461 729.061 876.723 731.161C878.034 749.896 881.355 768.463 887.297 786.609C887.384 786.861 887.384 787.114 887.471 787.282C888.083 789.214 888.433 791.146 889.132 793.078C890.53 796.859 892.452 800.219 894.2 803.832H898.045C895.336 798.287 892.278 792.91 890.18 787.198C885.898 774.932 883.015 761.91 881.092 748.3ZM430.279 781.569C429.58 780.897 428.793 780.477 428.094 779.888C421.54 774.092 414.462 769.051 407.384 763.926C402.228 760.314 396.985 756.785 391.48 753.592C387.635 751.408 384.489 748.384 380.47 746.451C373.741 743.259 367.1 739.982 360.197 737.126C359.935 737.042 359.76 736.874 359.498 736.706C349.274 732.085 340.448 725.952 332.758 718.811C330.836 717.047 328.738 715.451 326.903 713.519C319.388 705.369 313.359 695.708 308.64 684.786C307.155 681.51 305.407 678.569 304.184 675.125C298.241 659.33 292.474 643.536 285.483 628.246C277.182 609.847 266.434 593.045 255.074 576.662C239.869 554.483 232.441 529.699 229.121 503.319C228.771 500.967 228.422 498.53 228.072 496.178C225.8 475.175 223.616 454.424 222.305 433.505C220.557 404.604 222.567 375.872 229.732 347.728C233.228 333.698 236.111 319.5 235.325 304.882C234.364 287.239 230.257 270.352 220.47 255.986C220.033 255.314 219.508 254.642 218.984 253.97C217.411 251.786 216.1 249.517 214.178 247.501C213.042 246.241 211.644 245.905 210.421 244.813C208.061 242.712 205.527 240.948 202.906 239.268C194.517 233.807 185.604 230.11 175.729 230.11C169.962 230.11 163.845 231.034 157.641 232.715C156.068 233.135 154.844 234.143 153.359 234.647C153.359 234.647 153.359 234.647 153.271 234.647C135.183 240.78 119.279 251.113 105.21 263.883C74.0142 292.364 38.9732 314.123 0.873839 331.345C0.699072 331.429 0.524304 331.513 0.349536 331.597V335.042C12.3211 329.077 24.2927 322.944 36.177 316.811C59.3337 304.797 79.8689 289.255 99.6177 272.201C116.046 257.918 132.911 244.224 153.883 236.915C153.971 236.915 154.145 236.831 154.233 236.747C161.486 234.395 168.564 233.135 175.205 233.135C185.167 233.135 194.167 236.327 202.119 241.368C204.304 242.88 206.576 244.308 208.673 246.157C210.857 248.089 212.867 250.357 214.79 252.71C218.285 256.994 221.081 261.867 223.528 266.992C224.577 269.26 225.975 271.108 226.849 273.545C227.46 275.309 227.635 276.989 228.16 278.754C229.907 284.802 231.218 291.523 231.917 298.749C233.228 313.703 231.742 328.657 227.985 343.611C220.907 371.755 217.936 400.32 219.596 429.22C220.907 450.811 222.829 472.319 225.451 493.742C225.713 495.926 225.888 498.362 226.15 500.463C226.324 501.639 226.674 502.563 226.849 503.739C227.897 511.132 228.509 518.525 229.995 525.834C233.403 543.141 240.481 559.019 250.005 573.638C261.802 591.784 274.473 609.427 283.124 629.506C290.552 646.897 297.455 664.539 304.358 682.098C304.883 683.442 306.019 684.198 306.543 685.542C311.873 697.052 317.99 707.302 325.68 715.619C327.34 717.383 329.263 718.727 331.01 720.324C339.137 727.885 348.138 734.27 358.798 738.806C359.935 739.31 360.546 740.234 361.682 740.739C386.412 750.988 408.87 764.598 428.88 783.165C436.046 789.802 442.774 796.775 449.328 804H453.261C449.328 799.967 445.134 796.271 441.202 792.238C437.269 788.71 433.861 784.845 430.279 781.569ZM21.4091 755.189C23.8558 754.685 26.3026 754.685 28.7493 754.013C31.9825 753.172 34.5167 751.66 37.4003 750.568C37.9246 750.4 38.4489 750.316 38.9732 750.148C39.2354 750.064 39.4102 749.812 39.6723 749.728C57.6734 742.335 70.5188 729.565 78.3834 711.67C78.4708 711.418 78.7329 711.25 78.8203 710.998C79.0825 710.41 79.0825 709.738 79.3446 709.15C80.9175 705.369 82.7526 701.757 83.8886 697.556C84.7624 694.28 84.7624 690.919 85.4615 687.643C86.248 683.862 86.8596 679.913 87.3839 675.881C88.5199 668.068 89.1316 660.255 88.9569 652.441C88.9569 651.349 89.219 650.509 89.1316 649.417C88.9569 640.428 87.8209 632.194 85.811 624.465C85.7237 624.045 85.811 623.709 85.6363 623.289C77.6843 594.641 60.7318 574.478 33.8176 565.74C32.2447 565.236 30.7592 564.648 29.1862 564.228C26.9143 563.64 24.9918 562.464 22.5451 562.044C17.9137 561.288 13.2824 560.868 8.65101 560.868C5.76734 560.868 2.97105 561.624 0.174768 561.792V564.732C3.14582 564.48 6.02949 563.976 9.00055 563.976H9.787C16.7777 563.976 23.1567 564.984 29.2736 566.497C30.5844 566.833 31.8078 567.337 33.1185 567.673C38.5363 569.353 43.692 571.453 48.4107 574.394C48.5855 574.562 48.8476 574.73 49.0224 574.814C59.6832 581.703 68.5964 591.616 75.6745 604.554C79.3446 611.191 81.7914 618.08 83.6264 625.221C85.811 633.371 86.4227 642.108 86.6849 651.013C86.7723 658.154 86.0732 665.127 85.3741 672.1C84.8498 676.805 84.1507 681.51 83.1895 686.466C81.704 693.86 79.9563 701.169 77.16 708.226C76.8105 709.066 76.5483 709.906 76.1988 710.746C68.6838 728.221 56.1005 740.739 38.5363 747.628C38.012 747.88 37.4877 748.048 36.9634 748.216C31.2835 750.4 25.5161 751.912 19.7488 753.004C17.5642 753.424 15.2922 753.76 13.1076 754.097C8.82578 754.685 4.54397 755.105 0.262152 755.525V757.205C5.15565 756.701 10.2239 756.953 15.1174 756.113C17.1273 755.861 19.3992 755.525 21.4091 755.189Z" fill="#6666FF"/>
</svg>
